<?xml version="1.0" encoding="UTF-8"?>
<svg width="18px" height="18px" viewBox="0 0 18 18" version="1.1" xmlns="http://www.w3.org/2000/svg" xmlns:xlink="http://www.w3.org/1999/xlink">
    <!-- Generator: Sketch 54.1 (76490) - https://sketchapp.com -->
    <title>放大</title>
    <desc>Created with Sketch.</desc>
    <g id="放大" stroke="none" stroke-width="1" fill="none" fill-rule="evenodd">
        <g transform="translate(1.000000, 1.000000)" fill="#979BA4" id="138-enlarge">
            <g>
                <path d="M15,0 L10.7071068,-2.22044605e-16 C10.4309644,-1.71318074e-16 10.2071068,0.223857625 10.2071068,0.5 C10.2071068,0.632608245 10.2597852,0.759785201 10.3535534,0.853553391 L11.6464466,2.14644661 C11.8417088,2.34170876 11.8417088,2.65829124 11.6464466,2.85355339 L9,5.5 L10.5,7 L13.1464466,4.35355339 C13.3417088,4.15829124 13.6582912,4.15829124 13.8535534,4.35355339 L15.1464466,5.64644661 C15.3417088,5.84170876 15.6582912,5.84170876 15.8535534,5.64644661 C15.9473216,5.55267842 16,5.42550146 16,5.29289322 L16,1 C16,0.44771525 15.5522847,-1.01453063e-16 15,0 Z" id="路径" fill-rule="nonzero"></path>
                <path d="M16,15 L16,10.7071068 C16,10.4309644 15.7761424,10.2071068 15.5,10.2071068 C15.3673918,10.2071068 15.2402148,10.2597852 15.1464466,10.3535534 L13.8535534,11.6464466 C13.6582912,11.8417088 13.3417088,11.8417088 13.1464466,11.6464466 L10.5,9 L9,10.5 L11.6464466,13.1464466 C11.8417088,13.3417088 11.8417088,13.6582912 11.6464466,13.8535534 L10.3535534,15.1464466 C10.1582912,15.3417088 10.1582912,15.6582912 10.3535534,15.8535534 C10.4473216,15.9473216 10.5744985,16 10.7071068,16 L15,16 C15.5522847,16 16,15.5522847 16,15 Z" id="路径" fill-rule="nonzero"></path>
                <path d="M1,16 L5.29289322,16 C5.56903559,16 5.79289322,15.7761424 5.79289322,15.5 C5.79289322,15.3673918 5.7402148,15.2402148 5.64644661,15.1464466 L4.35355339,13.8535534 C4.15829124,13.6582912 4.15829124,13.3417088 4.35355339,13.1464466 L7,10.5 L5.5,9 L2.85355339,11.6464466 C2.65829124,11.8417088 2.34170876,11.8417088 2.14644661,11.6464466 L0.853553391,10.3535534 C0.658291245,10.1582912 0.341708755,10.1582912 0.146446609,10.3535534 C0.0526784202,10.4473216 -5.19218927e-16,10.5744985 -4.4408921e-16,10.7071068 L0,15 C6.76353751e-17,15.5522847 0.44771525,16 1,16 Z" id="路径" fill-rule="nonzero"></path>
                <path d="M0,1 L0,5.29289322 C-4.56709709e-16,5.56903559 0.223857625,5.79289322 0.5,5.79289322 C0.632608245,5.79289322 0.759785201,5.7402148 0.853553391,5.64644661 L2.14644661,4.35355339 C2.34170876,4.15829124 2.65829124,4.15829124 2.85355339,4.35355339 L5.5,7 L7,5.5 L4.35355339,2.85355339 C4.15829124,2.65829124 4.15829124,2.34170876 4.35355339,2.14644661 L5.64644661,0.853553391 C5.84170876,0.658291245 5.84170876,0.341708755 5.64644661,0.146446609 C5.55267842,0.0526784202 5.42550146,-2.59919302e-16 5.29289322,0 L1,0 C0.44771525,1.01453063e-16 -6.76353751e-17,0.44771525 0,1 Z" id="路径" fill-rule="nonzero"></path>
            </g>
        </g>
    </g>
</svg>