<?xml version="1.0" encoding="UTF-8"?>
<svg width="40px" height="40px" viewBox="0 0 40 40" version="1.1" xmlns="http://www.w3.org/2000/svg" xmlns:xlink="http://www.w3.org/1999/xlink">
    <!-- Generator: Sketch 54.1 (76490) - https://sketchapp.com -->
    <title>编组 2</title>
    <desc>Created with Sketch.</desc>
    <g id="Page-1" stroke="none" stroke-width="1" fill="none" fill-rule="evenodd">
        <g id="login" transform="translate(-799.000000, -505.000000)">
            <g id="编组-2" transform="translate(799.000000, 505.000000)">
                <rect id="Rectangle-62" stroke="#FFFFFF" stroke-width="2" x="1" y="1" width="38" height="38" rx="2"></rect>
                <path d="M19.7485407,6.50120379 L28.9334189,6.5 C31.8173113,6.70455539 33.6798355,8.02312492 34.5209917,10.4557086 C35.7827258,14.1045841 31.0519144,28.4465492 25.9046563,29.5748216 L15.4958826,29.5748216 L17.9586321,26.0413114 L21.7886926,26.0413114 C23.2246325,26.0317716 24.2191627,25.5054595 24.7722833,24.4623752 C27.4481776,19.4161281 28.8105602,12.8831604 28.8530061,12.6774346 C29.3113983,10.4557086 28.5438953,10.0637322 26.7906183,10.0094117 C25.8812599,10.0017567 23.1844652,10.0015552 18.7002342,10.0088071 L14.1959337,20.8462597 L19.78957,20.8462597 L7.05488735,38.9 L11.08399,27.8568645 L5.27272727,27.8245793 L12.2638846,6.5261969 L19.7485407,6.50120379 Z" id="Combined-Shape" fill="#FFFFFF"></path>
            </g>
        </g>
    </g>
</svg>