<?xml version="1.0" encoding="UTF-8"?>
<svg width="80px" height="26px" viewBox="0 0 80 26" version="1.1" xmlns="http://www.w3.org/2000/svg" xmlns:xlink="http://www.w3.org/1999/xlink">
    <!-- Generator: Sketch 54.1 (76490) - https://sketchapp.com -->
    <title>logo</title>
    <desc>Created with Sketch.</desc>
    <g id="Page-1" stroke="none" stroke-width="1" fill="none" fill-rule="evenodd">
        <g id="ding-ding-step1" transform="translate(-16.000000, -16.000000)">
            <g id="mainmenu">
                <g id="logo" transform="translate(16.000000, 16.000000)">
                    <path d="M75.5945485,3.70265363 L70.0348959,3.70265363 C69.2736391,3.62932575 68.7038319,3.96610418 68.3254743,4.71298893 C66.3967514,8.52032363 68.2078757,7.90457955 69.5240428,7.94749946 C70.2251452,7.95371136 71.3478168,7.95371136 72.8920575,7.94749946 L73.5496765,7.96901289 C76.3460325,8.11787753 77.7442105,9.15971024 77.7442105,11.094511 C77.7442105,13.9967122 75.7501568,17.7736164 72.7677598,18.4616948 L60.2325581,18.4616948 L61.3836447,15.4420994 L70.7325704,15.4420994 C71.5063856,15.4420994 72.0639451,15.1562777 72.405249,14.5846342 C74.7161379,10.8279035 73.0247069,11.0124874 71.7085397,10.9695675 C71.0074373,10.9633556 70.1173239,10.9633556 69.0381995,10.9695675 L67.6829061,10.948054 C64.8865501,10.6473987 63.4883721,9.5296706 63.4883721,7.59486982 C63.4883721,4.69266865 65.0173095,1.3711366 67.9997065,0.683058248 L78.674443,0.683058248 L80,0.683058248 L78.6193778,5.30311456 L75.1162791,5.30311456 L75.5945485,3.70265363 Z M10.8668458,0.000951143495 L17.7618404,0 C19.926749,0.161624016 21.324927,1.20345673 21.9563744,3.12549814 C22.9035454,6.00856025 19.3521734,17.3404833 15.4881791,18.2319578 L7.6744186,18.2319578 L9.52317962,15.4400485 L12.3983671,15.4400485 C13.4763125,15.4325109 14.2228962,15.0166594 14.6381182,14.192494 C16.6468848,10.2053358 17.6696116,5.04348476 17.7014753,4.88093601 C18.0455857,3.12549814 17.4694289,2.8157884 16.1532618,2.77286849 C15.4706157,2.76682012 13.4461593,2.7666609 10.0798928,2.77239083 L6.69856022,11.3353163 L10.8976461,11.3353163 L1.33784943,25.6 L4.36245574,16.8745596 L0,16.8490503 L5.24819064,0.0206987821 L10.8668458,0.000951143495 Z M37.1581686,18.4425727 L32.6406338,18.4425727 L28.8208211,9.025896 L23.1221859,18.4425727 L18.6046512,18.4425727 L29.7282581,0.0129471384 L37.1581686,18.4425727 Z M41.8604651,0.683058248 L46.2790698,0.683058248 L42.3255814,18.4425727 L37.9069767,18.4425727 L41.8604651,0.683058248 Z M51.041653,0.455372165 L58.4595148,0.455372165 C60.6244234,0.616996181 62.0226014,1.65882889 62.6540488,3.5808703 C63.4632486,6.04396665 61.2215848,14.5075803 58.0741375,17.4769405 C57.0764937,18.6456983 55.1349091,18.4596439 54.4931578,18.4596439 C53.2725783,18.4596439 51.441709,18.4596439 49.0005499,18.4596439 C46.8356412,18.2980199 45.4374632,17.2561872 44.8060159,15.3341458 C43.8588449,12.4510837 47.1776587,1.34684665 51.041653,0.455372165 Z M53.7428626,15.6673276 C54.8839223,15.6596293 55.5166375,15.2349166 55.956171,14.3931895 C58.082552,10.3210707 58.9326018,5.28176583 58.9663311,5.1157534 C59.3305893,3.32290968 58.7206983,3.00660049 57.3274689,2.96276601 C57.1915732,2.96160431 57.0054435,2.96065533 56.7690795,2.95991907 L53.9007472,2.95991907 C52.7596875,2.96761735 52.5174149,3.41462353 52.0778815,4.25635067 C49.9515005,8.32846943 49.1014507,13.3677743 49.0677214,13.5337867 C48.7034631,15.3266305 49.1355722,15.6429397 50.5288016,15.6867741 C50.6193987,15.6875486 51.6907524,15.6810664 53.7428626,15.6673276 Z" id="Combined-Shape" fill="#FFFFFF"></path>
                    <path d="M28.60521,12.8389903 L25.4732386,18.1723236 C29.0287941,18.1723236 30.8065719,18.1723236 30.8065719,18.1723236 C30.8065719,18.1723236 30.0727846,16.3945458 28.60521,12.8389903 Z" id="Path-4" fill="#33BDFE"></path>
                </g>
            </g>
        </g>
    </g>
</svg>