<?xml version="1.0" encoding="UTF-8"?>
<svg width="16px" height="15px" viewBox="0 0 16 15" version="1.1" xmlns="http://www.w3.org/2000/svg" xmlns:xlink="http://www.w3.org/1999/xlink">
    <!-- Generator: Sketch 54.1 (76490) - https://sketchapp.com -->
    <title>Combined Shape</title>
    <desc>Created with Sketch.</desc>
    <g id="Page-1" stroke="none" stroke-width="1" fill="none" fill-rule="evenodd">
        <g id="history" transform="translate(-368.000000, -241.000000)" fill="#5A656D" fill-rule="nonzero">
            <g id="left-menu" transform="translate(0.000000, 50.000000)">
                <g id="Group-2">
                    <g id="search" transform="translate(61.000000, 183.000000)">
                        <path d="M320.480558,8 L307.603377,8 C307.40424,8 307.138731,8.26923183 307.072358,8.47114184 C306.939612,8.67307034 307.005985,9.00960551 307.138731,9.21153401 L311.652379,15.2596171 L311.652379,20.8461453 C311.652379,21.0480738 311.785143,21.3173056 312.050635,21.384609 L315.435872,22.9326967 C315.502263,23 315.635009,23 315.7014,23 C315.834146,23 315.96691,23 316.033264,22.9326967 C316.232401,22.7980715 316.365165,22.6634648 316.365165,22.394233 L316.564302,15.1922952 L320.945205,9.14421218 C321.144324,9.00960553 321.144324,8.74035518 321.077951,8.47114184 C320.945187,8.26921334 320.746068,8 320.480558,8 Z M312.979929,20.4422883 L312.979929,15.7307589 L315.303144,15.7307589 L315.104007,21.4519123 L312.979929,20.4422883 Z M315.502263,14.3845997 L312.648046,14.3845997 L309.063672,9.3461407 L319.086655,9.3461407 L315.635009,14.3172964 C315.568636,14.3172964 315.568636,14.3845997 315.502263,14.3845997 Z M322.466665,18.2460498 C322.733332,18.2460498 323,18.5218074 323,18.797565 L323,19.0733225 C323,19.3490801 322.733351,19.6248377 322.466665,19.6248377 L318.200002,19.6248377 C317.933353,19.6248377 317.666667,19.3490991 317.666667,19.0733225 L317.666667,18.797565 C317.666667,18.5218263 317.933334,18.2460498 318.200002,18.2460498 L322.466665,18.2460498 Z M322.466665,15.2998344 C322.733332,15.2998344 323,15.575573 323,15.8513496 L323,16.1271071 C323,16.4028457 322.733351,16.6786223 322.466665,16.6786223 L318.200002,16.6786223 C317.933353,16.6786223 317.666667,16.4028647 317.666667,16.1271071 L317.666667,15.8513495 C317.666667,15.575592 317.933334,15.2998344 318.200002,15.2998344 L322.466665,15.2998344 Z M322.466665,21.0909091 C322.733332,21.0909091 323,21.3666515 323,21.6424129 L323,21.9181742 C323,22.1939356 322.733351,22.469697 322.466665,22.469697 L318.200002,22.469697 C317.933353,22.469697 317.666667,22.1939356 317.666667,21.9181742 L317.666667,21.6424129 C317.666667,21.3666705 317.933334,21.0909091 318.200002,21.0909091 L322.466665,21.0909091 Z" id="Combined-Shape"></path>
                    </g>
                </g>
            </g>
        </g>
    </g>
</svg>