<?xml version="1.0" encoding="utf-8" ?>
<svg xmlns="http://www.w3.org/2000/svg" xmlns:xlink="http://www.w3.org/1999/xlink" width="24" height="28">
	<defs>
		<clipPath id="clip_0">
			<rect x="-140.08008" y="-235.95996" width="3686.3999" height="2073.5999" clip-rule="evenodd"/>
		</clipPath>
	</defs>
	<g clip-path="url(#clip_0)">
		<path fill="rgb(47,136,238)" stroke="none" transform="matrix(1.92 0 0 1.92 0.0800781 0.200195)" d="M11.5904 3.13333C11.7584 3.2 11.8592 3.33333 11.96 3.5L6.08079 7L0.167978 3.5C0.268764 3.36667 0.369551 3.23333 0.537528 3.13333L5.54326 0.133333C5.61045 0.1 5.67764 0.0666667 5.77843 0.0333333L5.87921 0.0333333C5.9464 0 5.98 0 6.04719 0C6.11438 0 6.14798 0 6.24876 0.0333333L6.31596 0.0333333C6.38315 0.0666667 6.48393 0.1 6.55112 0.133333L11.5904 3.13333ZM5.57685 7.9L0 4.6L0 10C0 10.1667 0.0335955 10.3667 0.134382 10.5C0.235169 10.6667 0.335955 10.8 0.503933 10.8667L5.54326 13.8667C5.57685 11.8102 5.57685 9.81294 5.57685 7.9ZM6.48112 13.869L11.4589 10.9224C11.6259 10.8242 11.7261 10.6932 11.8264 10.5623C11.9266 10.3986 11.96 10.2349 11.96 10.0712L11.96 4.8L6.48112 8.04128L6.48112 13.869Z" fill-rule="evenodd"/>
	</g>

</svg>