<?xml version="1.0" encoding="UTF-8"?>
<svg width="50px" height="67px" viewBox="0 0 50 67" version="1.1" xmlns="http://www.w3.org/2000/svg" xmlns:xlink="http://www.w3.org/1999/xlink">
    <!-- Generator: Sketch 54.1 (76490) - https://sketchapp.com -->
    <title>Group Copy 2</title>
    <desc>Created with Sketch.</desc>
    <defs>
        <linearGradient x1="50%" y1="0%" x2="50%" y2="100%" id="linearGradient-1">
            <stop stop-color="#3C4246" offset="0%"></stop>
            <stop stop-color="#202427" offset="100%"></stop>
        </linearGradient>
        <linearGradient x1="50%" y1="0%" x2="50%" y2="100%" id="linearGradient-2">
            <stop stop-color="#50565B" offset="0%"></stop>
            <stop stop-color="#282F33" offset="100%"></stop>
        </linearGradient>
        <linearGradient x1="50%" y1="0%" x2="50%" y2="100%" id="linearGradient-3">
            <stop stop-color="#1F252A" offset="0%"></stop>
            <stop stop-color="#3F4850" offset="43.1881257%"></stop>
            <stop stop-color="#171C20" offset="100%"></stop>
        </linearGradient>
        <linearGradient x1="138.691059%" y1="50%" x2="-25.6510417%" y2="50%" id="linearGradient-4">
            <stop stop-color="#171A20" offset="0%"></stop>
            <stop stop-color="#1A1E24" offset="100%"></stop>
        </linearGradient>
        <linearGradient x1="100%" y1="50%" x2="-25.6510417%" y2="50%" id="linearGradient-5">
            <stop stop-color="#171A20" offset="0%"></stop>
            <stop stop-color="#1C2025" offset="100%"></stop>
        </linearGradient>
        <linearGradient x1="50%" y1="-13.4898343%" x2="50%" y2="107.18876%" id="linearGradient-6">
            <stop stop-color="#22282E" offset="0%"></stop>
            <stop stop-color="#17191D" offset="51.517341%"></stop>
            <stop stop-color="#1C2125" offset="100%"></stop>
        </linearGradient>
        <linearGradient x1="50%" y1="-16.5189793%" x2="50%" y2="107.866611%" id="linearGradient-7">
            <stop stop-color="#22282E" offset="0%"></stop>
            <stop stop-color="#17191D" offset="51.517341%"></stop>
            <stop stop-color="#1C2125" offset="100%"></stop>
        </linearGradient>
    </defs>
    <g id="Page-1" stroke="none" stroke-width="1" fill="none" fill-rule="evenodd">
        <g id="history" transform="translate(-174.000000, -90.000000)">
            <g id="Group-Copy-2" transform="translate(174.000000, 90.000000)">
                <path d="M2,0 L48,0 C49.1045695,-2.02906125e-16 50,0.8954305 50,2 L50,64.7329545 C50,65.837524 49.1045695,66.7329545 48,66.7329545 L2,66.7329545 C0.8954305,66.7329545 7.98370909e-15,65.837524 0,64.7329545 L0,2 C-1.3527075e-16,0.8954305 0.8954305,2.02906125e-16 2,0 Z" id="Rectangle-4" fill="#171A20"></path>
                <path d="M4.4222028,3.9222028 C4.14606042,3.9222028 3.9222028,4.14606042 3.9222028,4.4222028 L3.9222028,62.3107517 C3.9222028,62.5868941 4.14606042,62.8107517 4.4222028,62.8107517 L45.5777972,62.8107517 C45.8539396,62.8107517 46.0777972,62.5868941 46.0777972,62.3107517 L46.0777972,4.4222028 C46.0777972,4.14606042 45.8539396,3.9222028 45.5777972,3.9222028 L4.4222028,3.9222028 Z" id="Rectangle-4" stroke="url(#linearGradient-2)" fill="url(#linearGradient-1)"></path>
                <rect id="Rectangle-2" stroke="url(#linearGradient-4)" fill="url(#linearGradient-3)" x="41.944493" y="17.611014" width="5.84440559" height="27.2331731"></rect>
                <rect id="Rectangle-2-Copy-2" stroke="url(#linearGradient-5)" fill="url(#linearGradient-3)" transform="translate(5.133304, 31.227601) scale(-1, 1) translate(-5.133304, -31.227601) " x="2.2111014" y="17.611014" width="5.84440559" height="27.2331731"></rect>
                <path d="M44.0111451,23.9554196 L45.7222465,23.9554196 L45.7222465,24.9938811 L44.0111451,24.9938811 L44.0111451,23.9554196 Z M44.0111451,25.666521 L45.7222465,25.666521 L45.7222465,26.7049825 L44.0111451,26.7049825 L44.0111451,25.666521 Z M44.0111451,27.3776224 L45.7222465,27.3776224 L45.7222465,28.4160839 L44.0111451,28.4160839 L44.0111451,27.3776224 Z M44.0111451,29.0887238 L45.7222465,29.0887238 L45.7222465,30.1271853 L44.0111451,30.1271853 L44.0111451,29.0887238 Z M44.0111451,30.7998252 L45.7222465,30.7998252 L45.7222465,31.8382867 L44.0111451,31.8382867 L44.0111451,30.7998252 Z M44.0111451,32.5109266 L45.7222465,32.5109266 L45.7222465,33.5493881 L44.0111451,33.5493881 L44.0111451,32.5109266 Z M44.0111451,34.222028 L45.7222465,34.222028 L45.7222465,35.2604895 L44.0111451,35.2604895 L44.0111451,34.222028 Z M44.0111451,35.9331294 L45.7222465,35.9331294 L45.7222465,36.9715909 L44.0111451,36.9715909 L44.0111451,35.9331294 Z M44.0111451,37.6442308 L45.7222465,37.6442308 L45.7222465,38.6826923 L44.0111451,38.6826923 L44.0111451,37.6442308 Z" id="Combined-Shape" fill="url(#linearGradient-6)"></path>
                <path d="M4.2777535,23.9554196 L5.9888549,23.9554196 L5.9888549,24.9938811 L4.2777535,24.9938811 L4.2777535,23.9554196 Z M4.2777535,25.666521 L5.9888549,25.666521 L5.9888549,26.7049825 L4.2777535,26.7049825 L4.2777535,25.666521 Z M4.2777535,27.3776224 L5.9888549,27.3776224 L5.9888549,28.4160839 L4.2777535,28.4160839 L4.2777535,27.3776224 Z M4.2777535,29.0887238 L5.9888549,29.0887238 L5.9888549,30.1271853 L4.2777535,30.1271853 L4.2777535,29.0887238 Z M4.2777535,30.7998252 L5.9888549,30.7998252 L5.9888549,31.8382867 L4.2777535,31.8382867 L4.2777535,30.7998252 Z M4.2777535,32.5109266 L5.9888549,32.5109266 L5.9888549,33.5493881 L4.2777535,33.5493881 L4.2777535,32.5109266 Z M4.2777535,34.222028 L5.9888549,34.222028 L5.9888549,35.2604895 L4.2777535,35.2604895 L4.2777535,34.222028 Z M4.2777535,35.9331294 L5.9888549,35.9331294 L5.9888549,36.9715909 L4.2777535,36.9715909 L4.2777535,35.9331294 Z M4.2777535,37.6442308 L5.9888549,37.6442308 L5.9888549,38.6826923 L4.2777535,38.6826923 L4.2777535,37.6442308 Z" id="Combined-Shape-Copy" fill="url(#linearGradient-7)"></path>
                <polygon id="Rectangle-28" fill="#191919" points="8.55550699 28.2331731 41.444493 28.2331731 41.444493 29.1742788 8.55550699 29.1742788"></polygon>
                <polygon id="Rectangle-28" fill="#53595E" points="8.55550699 29.0887238 41.444493 29.0887238 41.444493 30.0298295 8.55550699 30.0298295"></polygon>
            </g>
        </g>
    </g>
</svg>