<?xml version="1.0" encoding="utf-8" ?>
<svg xmlns="http://www.w3.org/2000/svg" xmlns:xlink="http://www.w3.org/1999/xlink" width="27" height="14">
	<defs>
		<clipPath id="clip_0">
			<rect x="-3257.1001" y="-495.1001" width="3648" height="2052" clip-rule="evenodd"/>
		</clipPath>
	</defs>
	<g clip-path="url(#clip_0)">
		<path fill="rgb(153,153,153)" stroke="none" transform="matrix(1.9 0 0 1.9 1.40002 0.800293)" d="M1.41972 6.51019L4.29875 3.50516L7.17709 6.51019C7.20768 6.54208 7.24318 6.56637 7.28075 6.58167C7.39419 6.62956 7.52842 6.60598 7.61988 6.51019L10.7622 3.2297L12.3856 4.92432L12.3856 0L7.66849 0L9.43381 1.84307L7.3985 3.96768L4.52009 0.962655C4.44394 0.897202 4.37211 0.866897 4.2984 0.86724C4.21526 0.86713 4.13549 0.901596 4.07675 0.963016L0.0917285 5.12317C-0.0305762 5.25084 -0.0305762 5.45772 0.0917285 5.58539L0.977256 6.51011C1.09985 6.63786 1.29798 6.63786 1.41972 6.51019Z"/>
	</g>

</svg>