<?xml version="1.0" encoding="utf-8" ?>
<svg xmlns="http://www.w3.org/2000/svg" xmlns:xlink="http://www.w3.org/1999/xlink" width="22" height="25">
	<defs>
		<clipPath id="clip_0">
			<rect x="-1329.52" y="-2025.26" width="3801.6001" height="2138.3999" clip-rule="evenodd"/>
		</clipPath>
	</defs>
	<g clip-path="url(#clip_0)">
		<path fill="rgb(122,151,231)" stroke="none" transform="matrix(1.98 0 0 1.98 1.04004 0.280029)" d="M9.16667 6.72222C9.16667 8.70227 7.52504 10.3074 5.5 10.3074C3.47496 10.3074 1.83333 8.70227 1.83333 6.72222C1.83333 4.74218 3.47496 3.13704 5.5 3.13704L5.5 4.48148L8.5525 2.24074L5.5 0L5.5 1.34444C2.46243 1.34444 2.57606e-16 3.75216 0 6.72222C-3.43475e-16 9.69229 2.46243 12.1 5.5 12.1C8.53757 12.1 11 9.69229 11 6.72222L9.16667 6.72222Z"/>
	</g>

</svg>