<?xml version="1.0" encoding="utf-8" ?>
<svg xmlns="http://www.w3.org/2000/svg" xmlns:xlink="http://www.w3.org/1999/xlink" width="26" height="23">
	<defs>
		<clipPath id="clip_0">
			<rect x="-1416.0801" y="-1964.04" width="3686.3999" height="2073.5999" clip-rule="evenodd"/>
		</clipPath>
	</defs>
	<g clip-path="url(#clip_0)">
		<path fill="rgb(51,189,254)" stroke="none" transform="matrix(1.92 0 0 1.92 0.880127 0.119873)" d="M3.38202 3.19782L4.22065 3.19782C4.45171 3.19782 4.63928 3.38763 4.63928 3.61917L4.63928 5.30592C4.63928 5.53881 4.82821 5.72727 5.05792 5.72727L7.57244 5.72727C7.80351 5.72727 7.99244 5.53746 7.99244 5.30592L7.99244 3.61917C7.99244 3.38763 8.18137 3.19782 8.41107 3.19782L9.2497 3.19782C9.48077 3.19782 9.53514 3.06321 9.37203 2.90032L6.61285 0.123174C6.44974 -0.0410581 6.18334 -0.0410581 6.02023 0.123174L3.25969 2.90032C3.09659 3.06321 3.15231 3.19782 3.38202 3.19782ZM11.7394 3.43636C11.2646 3.43636 10.8803 3.82044 10.8803 4.29504L10.8803 8.87714C10.8803 9.35037 10.4959 9.73582 10.0211 9.73582L2.57753 9.73582C2.10408 9.73582 1.71836 9.35037 1.71836 8.87714L1.71836 4.29504C1.71836 3.82044 1.33402 3.43636 0.859178 3.43636C0.384332 3.43636 0 3.82044 0 4.29504L0 8.87714C0 10.2982 1.15578 11.4545 2.57753 11.4545L10.0225 11.4545C11.4428 11.4545 12.6 10.2982 12.6 8.87714L12.6 4.29504C12.5986 3.82044 12.2143 3.43636 11.7394 3.43636ZM4.58182 7.34523C4.58182 7.08256 4.77265 6.87273 5.01084 6.87273L7.58916 6.87273C7.82596 6.87273 8.01818 7.08256 8.01818 7.34523C8.01818 7.60488 7.82735 7.81773 7.58916 7.81773L5.01084 7.81773C4.77404 7.81773 4.58182 7.60488 4.58182 7.34523Z" fill-rule="evenodd"/>
	</g>

</svg>