<?xml version="1.0" encoding="utf-8" ?>
<svg xmlns="http://www.w3.org/2000/svg" xmlns:xlink="http://www.w3.org/1999/xlink" width="28" height="22">
	<defs>
		<clipPath id="clip_0">
			<rect x="-1112" y="-190" width="3840" height="2160" clip-rule="evenodd"/>
		</clipPath>
	</defs>
	<g clip-path="url(#clip_0)">
		<path fill="rgb(75,169,240)" stroke="none" transform="scale(2 2)" d="M6.73342 4.15805C6.9564 4.44008 7.16587 4.70461 7.38271 4.94751C8.13454 4.1948 9.07866 3.65762 10.8842 3.55311L10.3295 4.82757C10.3064 4.88038 10.3252 4.94035 10.3751 4.97455C10.3998 4.99125 10.4293 5 10.4587 5C10.4885 5 10.5183 4.99125 10.5432 4.97391L13.9458 2.59966C13.98 2.57611 14 2.53905 14 2.49992C14 2.46079 13.9802 2.42373 13.9458 2.40019L10.5431 0.0260885C10.4934 -0.00842939 10.4246 -0.00874752 10.375 0.0254522C10.325 0.0596519 10.3062 0.119621 10.3294 0.172431L10.8994 1.4822C8.4562 1.59832 7.01547 2.36328 6 3.2714C6.27188 3.57491 6.51098 3.87666 6.73342 4.15805ZM10.5253 5.63116C10.5544 5.63116 10.5836 5.64056 10.6082 5.65917L13.9469 8.20849C13.9806 8.23377 14 8.27357 14 8.31558C14 8.3576 13.9804 8.39739 13.9469 8.42267L10.6084 10.972C10.5597 11.0091 10.4921 11.0094 10.4435 10.9727C10.3944 10.936 10.376 10.8716 10.3987 10.8149L10.958 9.40851C7.23897 9.215 5.886 7.34494 4.78894 5.8257C3.7378 4.36983 2.90749 3.22036 0 3.22036L0 1C4.05545 1 5.46947 2.95819 6.60574 4.53174C7.6027 5.91247 8.40757 7.02435 10.9427 7.18473L10.3986 5.81631C10.3759 5.7596 10.3943 5.69521 10.4433 5.65849C10.4675 5.64056 10.4964 5.63116 10.5253 5.63116ZM4.73566 6.28306C5.10609 6.75379 5.50506 7.25963 6 7.74012C4.87161 8.9234 3.2272 10 0 10L0 7.84679C2.55868 7.84679 3.59509 7.07362 4.51172 6C4.58552 6.09259 4.65986 6.18667 4.73566 6.28306Z" fill-rule="evenodd"/>
	</g>

</svg>