<?xml version="1.0" encoding="utf-8" ?>
<svg xmlns="http://www.w3.org/2000/svg" xmlns:xlink="http://www.w3.org/1999/xlink" width="26" height="30">
	<defs>
		<clipPath id="clip_0">
			<rect x="-804.80029" y="-180.6499" width="3744" height="2106" clip-rule="evenodd"/>
		</clipPath>
	</defs>
	<g clip-path="url(#clip_0)">
		<path fill="rgb(115,117,127)" stroke="none" transform="matrix(1.95 0 0 1.95 0.549805 0.699951)" d="M10.2873 0.314747L12.6964 2.59973C12.6938 2.59752 12.7021 2.60872 12.7171 2.62911L12.7171 2.62916C12.7701 2.70098 12.9071 2.88656 12.9484 3.00125C13.0002 3.15357 13.0001 3.29748 13 3.4548L13 3.47694L13 12.9912C13 13.513 12.5719 13.94 12.0486 13.94L0.951349 13.94C0.428107 13.94 0 13.513 0 12.9912L0 0.952524C0 0.430706 0.428107 0.00376437 0.951349 0.00376437L9.32 0.00376437C9.36399 0.00376437 9.40819 0.00282599 9.45245 0.00188626C9.63681 -0.00202805 9.82228 -0.00596589 9.99915 0.0577909C10.1498 0.111817 10.175 0.200105 10.2873 0.314747ZM9.03259 1.06758L3.02272 1.06758L3.02272 4.85459L9.03259 4.85459L9.03259 1.06758ZM2 12.4625L2 6.65035L11 6.65035L11 12.4625L2 12.4625ZM11.6397 11.6961L12.4272 11.6961L12.4272 11.0267L11.6397 11.0267L11.6397 11.6961Z" fill-rule="evenodd"/>
	</g>
	<defs>
		<clipPath id="clip_1">
			<rect x="-804.80029" y="-180.6499" width="3744" height="2106" clip-rule="evenodd"/>
		</clipPath>
	</defs>
	<g clip-path="url(#clip_1)">
		<path fill="rgb(51,189,254)" stroke="none" transform="matrix(1.95 0 0 1.95 6.3999 3.82275)" d="M5.33827 0L3.65359 0L3.65359 2.8078L5.33827 2.8078L5.33827 0ZM0 6.39861L7 6.39861L7 7.39861L0 7.39861L0 6.39861ZM0 8.39861L7 8.39861L7 9.39861L0 9.39861L0 8.39861Z" fill-rule="evenodd"/>
	</g>

</svg>