<?xml version="1.0" encoding="utf-8" ?>
<svg xmlns="http://www.w3.org/2000/svg" xmlns:xlink="http://www.w3.org/1999/xlink" width="28" height="29">
	<defs>
		<clipPath id="clip_0">
			<rect x="-1362.7603" y="-184.13" width="3820.8" height="2149.2" clip-rule="evenodd"/>
		</clipPath>
	</defs>
	<g clip-path="url(#clip_0)">
		<path fill="rgb(115,117,127)" stroke="none" transform="matrix(1.99 0 0 1.99 0.389893 0.939941)" d="M1.0659 0L12.5339 0C13.1217 0 13.5998 0.478277 13.6 1.06657L13.6 12.9425C13.6 13.5306 13.1218 14.0092 12.5341 14.0092L1.0659 14.0092C0.478171 14.0092 0 13.5306 0 12.9425L0 1.06657C0 0.478453 0.478171 0 1.0659 0ZM9.4169 1.6626C9.4169 1.21202 9.05179 0.846599 8.60059 0.846599C8.15033 0.846599 7.78522 1.21202 7.7849 1.6626C7.7849 2.11317 8.15001 2.4786 8.60059 2.4786C9.05179 2.4786 9.4169 2.11349 9.4169 1.6626ZM11.3449 0.846599C11.7961 0.846599 12.1612 1.21202 12.1612 1.6626C12.1612 2.11349 11.7961 2.4786 11.3449 2.4786C10.8943 2.4786 10.5292 2.11317 10.5292 1.6626C10.5295 1.21202 10.8946 0.846599 11.3449 0.846599ZM1.12179 12.84L12.5236 12.84L12.5236 3.28066L1.12179 3.28066L1.12179 12.84Z" fill-rule="evenodd"/>
	</g>

</svg>