<?xml version="1.0" encoding="UTF-8"?>
<svg width="38px" height="38px" viewBox="0 0 38 38" version="1.1" xmlns="http://www.w3.org/2000/svg" xmlns:xlink="http://www.w3.org/1999/xlink">
    <!-- Generator: Sketch 54.1 (76490) - https://sketchapp.com -->
    <title>Rectangle 62</title>
    <desc>Created with Sketch.</desc>
    <g id="Page-1" stroke="none" stroke-width="1" fill="none" fill-rule="evenodd">
        <g id="initial-copy" transform="translate(-964.000000, -279.000000)">
            <g id="Shortcut-keys" transform="translate(960.000000, 279.000000)">
                <g id="Rectangle-62" transform="translate(4.000000, 0.000000)">
                    <rect stroke="#33BDFE" stroke-width="2" fill="#051D2B" x="1" y="1" width="36" height="36" rx="2"></rect>
                    <path d="M18.7780329,8.00107747 L26.8856722,8 C29.4313303,8.18308971 31.0754104,9.36329082 31.8179124,11.5406034 C32.9316654,14.8065722 28.7557022,27.6435163 24.2121349,28.6533897 L15.0241432,28.6533897 L17.1980518,25.49068 L20.5789077,25.49068 C21.8464348,25.4821412 22.7243226,25.0110594 23.2125711,24.0774346 C25.5746259,19.560732 26.7772229,13.7133226 26.8146905,13.5291853 C27.2193208,11.5406034 26.5418335,11.1897603 24.9941878,11.1411401 C24.1914825,11.1342884 21.8109785,11.1341081 17.8526759,11.140599 L13.8766575,20.840788 L18.8142501,20.840788 L7.5731413,37 L11.1296948,27.1157121 L6,27.0868148 L12.1712068,8.02344784 L18.7780329,8.00107747 Z" id="Combined-Shape" fill="#33BDFE"></path>
                </g>
            </g>
        </g>
    </g>
</svg>