<?xml version="1.0" encoding="utf-8" ?>
<svg xmlns="http://www.w3.org/2000/svg" xmlns:xlink="http://www.w3.org/1999/xlink" width="26" height="26">
	<defs>
		<clipPath id="clip_0">
			<rect x="-3236.5503" y="-122.55029" width="3744" height="2106" clip-rule="evenodd"/>
		</clipPath>
	</defs>
	<g clip-path="url(#clip_0)">
		<path fill="rgb(78,140,238)" stroke="none" transform="matrix(1.95 0 0 1.95 13.0067 10.8984)" d="M3.98011 4.36728C3.95481 4.1229 3.96324 3.94159 3.96324 3.71298C4.0813 3.64991 4.50292 3.27152 4.53665 2.95619C4.62941 2.94831 4.78119 2.86159 4.82335 2.51473C4.84865 2.33342 4.75589 2.22306 4.69686 2.19152C4.84865 1.75795 4.91611 0.402042 3.85362 0.268028C3.744 0.0945981 3.46573 0 3.10313 0C1.65276 0.0236495 1.2227 1.04058 1.54314 2.19941C1.48411 2.23094 1.39135 2.33342 1.41665 2.52262C1.45881 2.86948 1.61059 2.95619 1.70335 2.96407C1.73708 3.28728 2.1587 3.66568 2.27676 3.72086C2.27676 3.94947 2.28519 4.1229 2.25989 4.37516C1.97319 5.10041 0.0927568 4.93076 0 6.51528L6.24 6.51528C6.18941 4.90711 4.26681 5.10041 3.98011 4.36728Z"/>
	</g>
	<defs>
		<clipPath id="clip_1">
			<rect x="-3236.5503" y="-122.55029" width="3744" height="2106" clip-rule="evenodd"/>
		</clipPath>
	</defs>
	<g clip-path="url(#clip_1)">
		<path fill="rgb(166,197,246)" stroke="none" transform="matrix(1.95 0 0 1.95 0.449951 1.25684)" d="M10.04 4.48865C9.95357 4.37258 9.56314 4.26508 9.11733 4.26508C7.33411 4.29249 6.80536 5.47128 7.19933 6.81455C7.12676 6.8511 7.01271 6.96989 7.04381 7.1892C7.09565 7.59127 7.28227 7.69178 7.39631 7.70092C7.43778 8.07558 7.77693 8.5142 7.92208 8.57816C7.92208 8.63255 7.92252 8.68424 7.92294 8.73458C7.92459 8.92952 7.92606 9.1042 7.90134 9.33661C7.43778 10.0997 5.43915 9.45738 5.3069 11.5125L0.456472 11.5125C0.205413 11.5125 0 11.3173 0 11.0787L0 0.433803C0 0.195212 0.205413 0 0.456472 0L9.94338 0C10.1944 0 10.3999 0.195212 10.3999 0.433803L10.3999 4.1334C10.3999 4.28494 10.3999 4.43333 10.4 4.57865C10.2937 4.5355 10.1742 4.5046 10.04 4.48865ZM4.58469 0.607325L1.79023 0.607325L1.79023 3.03527C1.80021 3.20201 1.99992 3.29284 2.14827 3.20337L3.14538 2.60011L4.2295 3.20879C4.37928 3.29284 4.57471 3.20066 4.58469 3.03527L4.58469 0.607325ZM1.69323 5.09101C1.44217 5.09101 1.23675 4.8958 1.23675 4.65721C1.23675 4.41862 1.44217 4.2234 1.69323 4.2234L5.50905 4.2234C5.76011 4.2234 5.96552 4.41862 5.96552 4.65721C5.96552 4.8958 5.76011 5.09101 5.50905 5.09101L1.69323 5.09101ZM4.98268 6.62812L1.69323 6.62812C1.44217 6.62812 1.23675 6.43291 1.23675 6.19432C1.23675 5.95573 1.44217 5.76052 1.69323 5.76052L4.98268 5.76052C5.23374 5.76052 5.43915 5.95573 5.43915 6.19432C5.43915 6.43291 5.23374 6.62812 4.98268 6.62812ZM3.95704 7.8755C3.95704 7.63691 3.75163 7.4417 3.50057 7.4417L1.69323 7.4417C1.44217 7.4417 1.23675 7.63691 1.23675 7.8755C1.23675 8.11409 1.44217 8.3093 1.69323 8.3093L3.50057 8.3093C3.75163 8.3093 3.95704 8.11409 3.95704 7.8755Z" fill-rule="evenodd"/>
	</g>

</svg>