<?xml version="1.0" encoding="utf-8" ?>
<svg xmlns="http://www.w3.org/2000/svg" xmlns:xlink="http://www.w3.org/1999/xlink" width="27" height="26">
	<defs>
		<clipPath id="clip_0">
			<rect x="-3650.71" y="-124.51025" width="3820.8" height="2149.2" clip-rule="evenodd"/>
		</clipPath>
		<linearGradient id="gradient_0" gradientUnits="userSpaceOnUse" x1="6.5" y1="0" x2="6.5" y2="11.667357">
			<stop offset="0" stop-color="rgb(193,201,222)"/>
			<stop offset="1" stop-color="rgb(141,153,186)"/>
		</linearGradient>
	</defs>
	<g clip-path="url(#clip_0)">
		<path fill="url(#gradient_0)" stroke="none" transform="matrix(1.99 0 0 1.99 0.939941 0.859863)" d="M0 0L1.1701 0L1.1701 11.8765L0 11.8765L0 0ZM8.47292 0L1.75515 0L1.75515 11.8765L8.47292 11.8765Q8.62668 11.8765 8.77807 11.8625Q8.92946 11.8486 9.07723 11.8207Q9.22501 11.7929 9.36797 11.7514Q9.51094 11.7099 9.64792 11.6551Q9.7849 11.6003 9.91478 11.5327Q10.0447 11.465 10.1664 11.3851Q10.2881 11.3051 10.4007 11.2135Q10.5133 11.1219 10.6158 11.0194Q10.7183 10.9169 10.8099 10.8043Q10.9015 10.6917 10.9814 10.57Q11.0614 10.4483 11.129 10.3184Q11.1967 10.1885 11.2515 10.0515Q11.3063 9.91454 11.3478 9.77158Q11.3893 9.62862 11.4171 9.48084Q11.445 9.33306 11.4589 9.18168Q11.4729 9.03029 11.4729 8.87653L11.4729 3Q11.4729 2.84624 11.4589 2.69485Q11.445 2.54347 11.4171 2.39569Q11.3893 2.24791 11.3478 2.10495Q11.3063 1.96199 11.2515 1.825Q11.1967 1.68802 11.129 1.55814Q11.0614 1.42826 10.9814 1.30653Q10.9015 1.1848 10.8099 1.07223Q10.7183 0.959651 10.6158 0.857143Q10.5133 0.754635 10.4007 0.663032Q10.2881 0.571429 10.1664 0.491477Q10.0447 0.411525 9.91478 0.343877Q9.7849 0.276229 9.64792 0.221437Q9.51094 0.166644 9.36798 0.125154Q9.22501 0.0836631 9.07724 0.0558134Q8.92946 0.0279637 8.77807 0.0139819Q8.62668 0 8.47292 0ZM12.058 1.36358L13 1.36358L13 4.58163L12.058 4.58163L12.058 1.36358ZM10.0351 1.36854L2.96491 1.36854L2.96491 3.42134L10.0351 3.42134L10.0351 1.36854ZM12.058 5.04871L13 5.04871L13 8.26676L12.058 8.26676L12.058 5.04871Z" fill-rule="evenodd"/>
	</g>
	<defs>
		<clipPath id="clip_1">
			<rect x="-3650.71" y="-124.51025" width="3820.8" height="2149.2" clip-rule="evenodd"/>
		</clipPath>
	</defs>
	<g clip-path="url(#clip_1)">
		<path fill="rgb(37,37,37)" stroke="none" transform="matrix(1.99 0 0 1.99 8.33142 10.0991)" d="M4.17857 8.35714C6.48633 8.35714 8.35714 6.48633 8.35714 4.17857C8.35714 1.87081 6.48633 0 4.17857 0C1.87081 0 0 1.87081 0 4.17857C0 6.48633 1.87081 8.35714 4.17857 8.35714Z"/>
	</g>
	<defs>
		<clipPath id="clip_2">
			<rect x="-3650.71" y="-124.51025" width="3820.8" height="2149.2" clip-rule="evenodd"/>
		</clipPath>
	</defs>
	<g clip-path="url(#clip_2)">
		<path fill="rgb(78,140,238)" stroke="none" transform="matrix(1.99 0 0 1.99 10.1793 11.9473)" d="M3.25 0C1.45507 0 0 1.45507 0 3.25C0 5.04493 1.45507 6.5 3.25 6.5C5.04493 6.5 6.5 5.04493 6.5 3.25C6.5 1.45507 5.04493 0 3.25 0ZM3.64014 3.70463C3.72241 3.57959 3.8298 3.4708 3.95631 3.38432C4.19722 3.2116 4.41166 3.00853 4.5936 2.78082C4.68511 2.63983 4.73142 2.47704 4.72698 2.31195C4.72986 2.00813 4.58862 1.71887 4.34165 1.52277C4.0339 1.28514 3.6427 1.16426 3.24493 1.18388C2.86399 1.17846 2.4944 1.3058 2.20749 1.54134C1.95147 1.74563 1.7946 2.03878 1.77275 2.35373C1.76781 2.63691 2.48414 2.57656 2.50884 2.43729C2.54925 2.24949 2.64711 2.07686 2.79043 1.94057C2.92968 1.83357 3.10458 1.77604 3.28445 1.77809C3.46417 1.77182 3.64006 1.82801 3.77847 1.93593C3.89758 2.02869 3.96642 2.16658 3.96619 2.31195C3.96695 2.41611 3.93041 2.51749 3.86245 2.59977C3.7325 2.72609 3.59209 2.84251 3.44253 2.94794C3.25733 3.0731 3.09964 3.23073 2.97816 3.41217C2.89379 3.58196 2.85318 3.76803 2.85959 3.95532L2.85959 4.13636L3.5858 4.13636C3.57221 3.99047 3.59071 3.84352 3.64014 3.70463ZM3.24078 5.43712C3.01234 5.43712 2.82715 5.25193 2.82715 5.02349C2.82715 4.79504 3.01234 4.60985 3.24078 4.60985C3.46923 4.60985 3.65442 4.79504 3.65442 5.02349C3.65442 5.25193 3.46923 5.43712 3.24078 5.43712Z" fill-rule="evenodd"/>
	</g>

</svg>