<?xml version="1.0" encoding="utf-8" ?>
<svg xmlns="http://www.w3.org/2000/svg" xmlns:xlink="http://www.w3.org/1999/xlink" width="26" height="26">
	<defs>
		<clipPath id="clip_0">
			<rect x="-3490" y="-126" width="3840" height="2160" clip-rule="evenodd"/>
		</clipPath>
	</defs>
	<g clip-path="url(#clip_0)">
		<path fill="rgb(78,140,238)" stroke="none" transform="matrix(2 0 0 2 6 6)" d="M9.34291 0.00140293L8.08475 0.00140293L8.08475 5.64475L0.000191396 5.64475L0.000191396 6.8695C-0.00401222 7.04582 0.061181 7.21623 0.180554 7.34095C0.299926 7.46567 0.463032 7.53378 0.631797 7.52939L7.47335 7.52939L9.99978 10L9.99978 0.661289C10.0044 0.480168 9.93583 0.305381 9.81082 0.179799C9.68581 0.0542168 9.51595 -0.0105431 9.34291 0.00140293Z"/>
	</g>
	<defs>
		<clipPath id="clip_1">
			<rect x="-3490" y="-126" width="3840" height="2160" clip-rule="evenodd"/>
		</clipPath>
	</defs>
	<g clip-path="url(#clip_1)">
		<path fill="rgb(166,197,246)" stroke="none" transform="scale(2 2)" d="M1.02775 2.01862e-05L8.97225 2.01862e-05C9.49849 -0.00333246 9.94212 0.411315 10 0.960623L10 7.02105C9.94212 7.57036 9.49849 7.98501 8.97225 7.98166L2.01439 7.98166L0 10L0 0.960623C0.0578778 0.411315 0.501509 -0.00333246 1.02775 2.01862e-05ZM2.45118 4.52241L3.47893 4.52241L3.47893 3.55641L2.45118 3.55641L2.45118 4.52241ZM5.49332 4.52241L4.46557 4.52241L4.46557 3.55641L5.49332 3.55641L5.49332 4.52241ZM6.47996 4.52241L7.50771 4.52241L7.50771 3.55641L6.47996 3.55641L6.47996 4.52241Z" fill-rule="evenodd"/>
	</g>

</svg>