<?xml version="1.0" encoding="UTF-8"?>
<svg width="15px" height="17px" viewBox="0 0 15 17" version="1.1" xmlns="http://www.w3.org/2000/svg" xmlns:xlink="http://www.w3.org/1999/xlink">
    <!-- Generator: Sketch 54.1 (76490) - https://sketchapp.com -->
    <title>基本信息</title>
    <desc>Created with Sketch.</desc>
    <g id="页面1" stroke="none" stroke-width="1" fill="none" fill-rule="evenodd">
        <g id="项目-信息黑" transform="translate(-61.000000, -129.000000)">
            <g id="基本信息" transform="translate(60.000000, 129.000000)">
                <g>
                    <rect id="矩形" fill="#000000" fill-rule="nonzero" opacity="0" x="0" y="0" width="17" height="17"></rect>
                    <path d="M8.5,0 L8.5,6.8 L15.3,6.8 L15.3,16.15 C15.3,16.619442 14.919442,17 14.45,17 L2.55,17 C2.08055796,17 1.7,16.619442 1.7,16.15 L1.7,0.85 C1.7,0.380557963 2.08055796,8.62351033e-17 2.55,0 L8.5,0 Z M3.4,2.55 L3.4,4.25 L6.8,4.25 L6.8,2.55 L3.4,2.55 Z M3.4,5.95 L3.4,7.65 L6.8,7.65 L6.8,5.95 L3.4,5.95 Z M3.4,9.35 L3.4,11.05 L13.6,11.05 L13.6,9.35 L3.4,9.35 Z M3.4,12.75 L3.4,14.45 L13.6,14.45 L13.6,12.75 L3.4,12.75 Z" id="形状结合" fill="#434D60" fill-rule="nonzero"></path>
                    <path d="M10.19745,0.442 C10.1973955,0.373308933 10.2386854,0.311334943 10.302098,0.284928499 C10.3655107,0.258522054 10.4385838,0.272872761 10.4873,0.3213 L15.0059,4.8093 C15.0548263,4.85782665 15.0696181,4.93108869 15.0433525,4.99479686 C15.0170868,5.05850502 14.9549602,5.10005503 14.88605,5.1 L10.36745,5.1034 C10.2735616,5.1034 10.19745,5.02728841 10.19745,4.9334 L10.19745,0.442 Z" id="路径" fill="#33BDFE" fill-rule="nonzero"></path>
                </g>
            </g>
        </g>
    </g>
</svg>