<?xml version="1.0" standalone="no"?>
<!DOCTYPE svg PUBLIC "-//W3C//DTD SVG 1.1//EN" "http://www.w3.org/Graphics/SVG/1.1/DTD/svg11.dtd" >
<!--
2013-9-30: Created.
-->
<svg>
<metadata>
Created by iconfont
</metadata>
<defs>

<font id="iconfont" horiz-adv-x="1024" >
  <font-face
    font-family="iconfont"
    font-weight="500"
    font-stretch="normal"
    units-per-em="1024"
    ascent="896"
    descent="-128"
  />
    <missing-glyph />
    
    <glyph glyph-name="icon-cxsz" unicode="&#58929;" d="M697.728 252.50133300000005l119.850667-119.893333a41.813333 41.813333 0 0 0-59.008-59.050667l-119.893334 119.936a31.701333 31.701333 0 0 0-3.541333 4.352A198.314667 198.314667 0 1 0 725.333333 364.11733300000003a197.12 197.12 0 0 0-32.042666-107.946666c1.450667-1.237333 2.986667-2.261333 4.394666-3.669334z m210.944 182.613334H981.333333v-126.165334h-72.789333a398.634667 398.634667 0 0 0-12.074667-52.608l-80.213333 27.733334c7.978667 27.946667 12.373333 57.514667 12.373333 87.978666 0 173.994667-139.264 315.136-310.954666 315.136-171.690667 0-310.997333-141.141333-310.997334-315.136 0-173.952 139.178667-315.136 310.997334-315.136 25.770667 0 50.944 3.2 74.965333 9.258667l24.874667-82.261333c-12.373333-3.285333-24.874667-6.058667-37.674667-8.106667v-85.205333h-124.373333v85.248a389.546667 389.546667 0 0 0-79.36 21.546666l-42.069334-73.728-107.733333 62.890667 42.069333 73.898667a403.114667 403.114667 0 0 0-58.112 58.88l-72.874666-42.666667-62.122667 109.226667 72.789333 42.581333a398.08 398.08 0 0 0-21.290666 80.469333H42.666667v126.037334h84.010666a403.2 403.2 0 0 0 21.290667 80.469333L75.178667 558.0799999999999 137.386667 667.136l72.874666-42.666667a403.114667 403.114667 0 0 0 58.112 58.88l-42.069333 73.898667L334.08 820.266667l42.026667-73.770667a384.597333 384.597333 0 0 0 79.402666 21.589333V853.333333h124.373334v-85.12a389.546667 389.546667 0 0 0 79.402666-21.589333l42.069334 73.770667 107.690666-62.933334-42.026666-73.856c21.290667-17.536 40.789333-37.333333 58.069333-58.88l72.917333 42.624 62.165334-109.184-72.746667-42.624a398.08 398.08 0 0 0 21.290667-80.426666z"  horiz-adv-x="1024" />

    
    <glyph glyph-name="icon-admin" unicode="&#58930;" d="M566.997333 380.11733300000003l175.872 107.818667a38.613333 38.613333 0 0 1 12.544 53.077333 38.826667 38.826667 0 0 1-53.162666 12.8l-174.08-106.624-173.696 106.666667a38.869333 38.869333 0 0 1-59.136-31.914667 38.656 38.656 0 0 1 18.474666-34.005333l175.616-107.733333v-206.976a38.741333 38.741333 0 1 1 77.568 0v206.890666zM528.170667 768l314.88-181.333333v-362.666667L528.213333 42.66666699999996 213.333333 224v362.666667L528.213333 768z"  horiz-adv-x="1024" />

    
    <glyph glyph-name="icon-bjqpz" unicode="&#58931;" d="M965.76 90.45333300000004a54.016 54.016 0 0 0-25.6 18.773334 50.432 50.432 0 0 0-9.685333 30.805333c0 11.989333 3.84 22.784 11.605333 32.256 7.722667 9.429333 17.066667 16.085333 27.946667 19.882667a19.882667 19.882667 0 0 1 8.234666 6.4c2.56 3.328 3.541333 7.893333 2.858667 13.738666a121.685333 121.685333 0 0 1-8.192 29.696c-4.053333 9.813333-8.704 17.152-13.952 21.973334a16.469333 16.469333 0 0 1-10.282667 4.608 16.341333 16.341333 0 0 1-10.282666-2.048c-10.581333-4.821333-22.058667-6.784-34.389334-5.973334a48 48 0 0 0-31.146666 13.738667 51.413333 51.413333 0 0 0-15.317334 28.928 53.845333 53.845333 0 0 0 4.266667 31.530667 30.848 30.848 0 0 1 2.133333 6.954666 11.52 11.52 0 0 1-1.621333 9.045334 50.261333 50.261333 0 0 1-11.349333 12.373333 64.853333 64.853333 0 0 1-15.616 9.301333 100.437333 100.437333 0 0 1-17.152 5.717334 69.632 69.632 0 0 1-16.085334 2.048c-3.242667 0-6.272-1.450667-9.258666-4.394667a33.493333 33.493333 0 0 1-6.613334-8.533333c-3.84-10.325333-10.538667-18.816-20.053333-25.6a55.253333 55.253333 0 0 0-32.768-10.069334c-11.946667 0-22.357333 3.584-31.146667 10.624a62.165333 62.165333 0 0 0-19.029333 24.533334 26.453333 26.453333 0 0 1-5.504 9.088 13.909333 13.909333 0 0 1-10.837333 4.394666c-3.498667 0-8.277333-0.64-14.250667-1.834666-5.973333-1.28-12.117333-3.029333-18.474667-5.418667a90.368 90.368 0 0 1-17.706666-9.088 29.482667 29.482667 0 0 1-11.349334-12.629333 11.221333 11.221333 0 0 1-0.768-7.253334c0.512-2.730667 1.109333-5.12 1.834667-7.253333 0.341333-2.005333 0.810667-5.461333 1.28-10.282667 0.597333-4.821333 0.597333-10.154667 0-16a82.005333 82.005333 0 0 0-3.669333-17.834666 37.12 37.12 0 0 0-9.216-15.274667 54.186667 54.186667 0 0 0-30.378667-14.677333 65.024 65.024 0 0 0-32.981333 3.84 47.701333 47.701333 0 0 1-8.704 2.133333 12.544 12.544 0 0 1-8.234667-2.133333 32.426667 32.426667 0 0 1-9.770667-9.514667c-2.986667-4.309333-5.632-9.045333-7.893333-14.208a100.48 100.48 0 0 1-5.546667-16.042667c-1.408-5.504-2.133333-10.496-2.133333-14.976 0-4.096 1.109333-8.149333 3.2-12.117333 2.133333-3.968 4.736-6.442667 7.850667-7.424 10.538667-4.138667 20.053333-10.666667 28.501333-19.626667 8.448-8.96 12.672-19.498667 12.672-31.530666 0-11.733333-4.266667-22.314667-12.672-31.786667a74.666667 74.666667 0 0 0-28.501333-20.394667c-6.016-2.090667-9.514667-6.912-10.581334-14.506666a42.410667 42.410667 0 0 1 1.066667-15.701334c1.408-6.4 3.413333-12.586667 6.058667-18.602666 2.688-6.016 5.632-11.562667 8.96-16.554667a23.168 23.168 0 0 1 25.685333-10.581333c7.722667 2.432 15.274667 3.84 22.698667 4.138666 6.357333 0.341333 13.013333-0.213333 20.053333-1.792a34.346667 34.346667 0 0 0 17.92-10.069333c8.106667-8.618667 12.629333-18.005333 13.525333-28.16 0.853333-10.154667-0.64-19.2-4.522666-27.136-2.816-5.845333-4.138667-10.410667-3.968-13.696a15.658667 15.658667 0 0 1 2.944-8.533333c2.474667-3.413333 6.144-6.826667 11.093333-10.282667 4.906667-3.456 10.453333-6.485333 16.64-9.045333 6.144-2.56 12.288-4.736 18.474667-6.485334 6.144-1.706667 11.690667-2.56 16.64-2.56 4.266667 0 8.106667 0.896 11.562666 2.773334a17.706667 17.706667 0 0 1 7.936 9.088c3.84 10.325333 10.666667 19.328 20.352 27.093333 9.642667 7.765333 20.48 11.648 32.426667 11.648 12.373333 0 23.210667-3.882667 32.512-11.648 9.344-7.765333 15.914667-16.938667 19.797333-27.605333a31.232 31.232 0 0 1 6.357334-7.765334 13.696 13.696 0 0 1 8.96-3.626666c4.608 0 9.856 0.725333 15.872 2.048 5.973333 1.365333 11.733333 3.285333 17.152 5.674666 5.461333 2.432 10.496 5.12 15.061333 8.021334a39.594667 39.594667 0 0 1 10.026667 8.533333 19.328 19.328 0 0 1 1.621333 20.650667 56.96 56.96 0 0 0-4.778667 31.530666 50.346667 50.346667 0 0 0 14.848 29.44c3.797333 4.138667 8.533333 7.082667 13.952 8.789334 5.418667 1.706667 10.88 2.816 16.341334 3.328 5.461333 0.512 10.794667 0.341333 16.128-0.512 5.248-0.853333 9.685333-1.792 13.184-2.858667 3.84-1.365333 7.381333-2.048 10.538666-2.048a25.770667 25.770667 0 0 1 11.093334 3.114667 32.128 32.128 0 0 1 11.648 10.325333 85.418667 85.418667 0 0 1 14.208 34.090667 42.410667 42.410667 0 0 1 0.554666 14.976 23.082667 23.082667 0 0 1-7.936 11.861333 48.981333 48.981333 0 0 1-6.357333 4.138667z m-144.085333-39.936a123.221333 123.221333 0 0 0-86.954667-35.242666 121.429333 121.429333 0 0 0-86.4 35.242666 124.501333 124.501333 0 0 0-26.154667 38.272 114.304 114.304 0 0 0-9.6 46.506667c0 16.512 3.2 32 9.6 46.506667 6.357333 14.506667 15.104 27.178667 26.154667 37.973333a123.136 123.136 0 0 0 86.4 34.986667c16.810667 0 32.853333-3.114667 47.786667-9.344a119.936 119.936 0 0 0 65.322666-63.616c6.4-14.506667 9.557333-29.952 9.557334-46.506667 0-16.469333-3.157333-32-9.557334-46.506667-6.357333-14.506667-15.061333-27.221333-26.154666-38.272z m-356.48 82.261334c-0.597333-1.194667-1.322667-2.304-2.090667-3.456a48.384 48.384 0 0 0-5.973333-5.248 81.194667 81.194667 0 0 1-15.701334-15.445334c-10.325333-13.696-13.653333-33.066667-13.653333-49.706666 0-13.226667 2.432-26.453333 6.186667-39.253334H180.736C128 19.71199999999999 85.333333 57.898667000000046 85.333333 104.96000000000004V768.128C85.333333 815.189333 128.042667 853.333333 180.736 853.333333h429.354667l238.421333-242.773333v-187.989333a50.645333 50.645333 0 0 1-18.56 6.954666c-16.810667 2.688-31.701333-0.725333-47.104-7.253333a115.2 115.2 0 0 1-32.426667-22.016 214.186667 214.186667 0 0 0-9.386666-8.106667l-2.133334-1.578666c-2.261333-1.621333-4.693333-3.072-8.32-5.034667a33.706667 33.706667 0 0 0-2.56-1.024 38.528 38.528 0 0 0-3.328-0.853333 36.181333 36.181333 0 0 0-3.285333 0c0.213333 0.085333-5.12 0.853333-6.741333 1.322666-1.493333 0.426667-2.986667 0.981333-4.394667 1.493334l-2.261333 1.024a84.736 84.736 0 0 0-4.693334 2.432 124.330667 124.330667 0 0 1-17.194666 13.226666 126.464 126.464 0 0 1-10.965334 14.293334 47.232 47.232 0 0 1-53.973333 10.752 270.336 270.336 0 0 1-19.968-2.688 20.48 20.48 0 0 1-14.421333-10.922667c-14.506667-8.106667-25.6-22.485333-28.928-38.698667-1.28-6.229333-1.706667-12.501333-1.493334-18.773333a446.293333 446.293333 0 0 1-1.706666-14.293333l-0.896-7.466667c-0.682667-3.84-1.621333-7.68-3.157334-11.946667-0.512-0.981333-1.92-2.986667-2.645333-4.096a26.026667 26.026667 0 0 0-3.754667-3.114666 83.029333 83.029333 0 0 0-5.973333-3.370667 30.976 30.976 0 0 1-16.981333 1.92c-29.184-4.437333-55.893333-18.090667-73.045334-42.154667-8.96-12.544-13.994667-29.568-13.482666-44.8 0.469333-15.488 6.613333-29.866667 14.122666-43.178666 2.986667-5.12 6.144-10.154667 9.173334-15.274667a191.786667 191.786667 0 0 0 6.613333-12.202667c1.066667-2.688 1.834667-5.461333 2.432-8.277333a41.514667 41.514667 0 0 0-0.128-9.813333 53.461333 53.461333 0 0 0-1.749333-6.272z m22.4 660.352a40.917333 40.917333 0 0 1-41.216-40.618667c0-22.4 18.432-40.618667 41.216-40.618667a40.917333 40.917333 0 0 1 41.173333 40.618667 40.917333 40.917333 0 0 1-41.173333 40.618667z m-295.68-81.237334a40.917333 40.917333 0 0 1 41.173333 40.618667 40.917333 40.917333 0 0 1-41.216 40.618667 40.917333 40.917333 0 0 1-41.173333-40.618667c0-22.4 18.432-40.618667 41.173333-40.618667z m147.797333 0a40.917333 40.917333 0 0 1 41.216 40.618667 40.917333 40.917333 0 0 1-41.216 40.618667 40.917333 40.917333 0 0 1-41.173333-40.618667c0-22.4 18.432-40.618667 41.173333-40.618667z"  horiz-adv-x="1024" />

    
    <glyph glyph-name="icon-stat" unicode="&#58932;" d="M246.272 390.101333L399.658667 544.853333l153.301333-154.752a16.554667 16.554667 0 0 1 23.594667 0l167.381333 168.917334 86.442667-87.253334V725.333333h-251.264l94.037333-94.890666-108.373333-109.44-153.344 154.752a18.176 18.176 0 0 1-11.818667 4.906666 16.597333 16.597333 0 0 1-11.818667-4.906666l-212.224-214.229334a16.938667 16.938667 0 0 1 0-23.808l47.146667-47.616c6.528-6.570667 17.066667-6.570667 23.552 0z m-51.072-48.384l27.52-27.776c6.528-6.570667 17.066667-6.570667 23.552 0l32.341333 32.597334V85.33333300000004H195.2v256.426667z m128.426667 59.861334l66.517333 67.114666 16.896-17.066666V85.33333300000004H323.626667v316.245334zM461.568 85.33333300000004v322.688l81.834667-82.602666c0.469333-0.426667 1.066667-0.64 1.578666-1.024V85.33333300000004h-83.413333z m137.941333 261.418667l14.677334 14.805333 68.693333 69.376V85.33333300000004h-83.370667v261.418667zM820.821333 85.33333300000004h-83.370666V492.202667l83.370666-84.181334V85.33333300000004z"  horiz-adv-x="1024" />

    
    <glyph glyph-name="icon-mbgl" unicode="&#58933;" d="M931.882667 473.301333h-49.365334V663.296L684.885333 853.333333H240.298667c-54.613333 0-98.816-42.538667-98.816-95.018666v-285.013334H92.032C64.768 473.301333 42.666667 452.053333 42.666667 425.813333v-285.013333c0-12.586667 5.162667-24.661333 14.464-33.578667 9.258667-8.96 21.845333-13.952 34.901333-13.952h49.493333v-47.488c0-52.437333 44.16-94.976 98.730667-95.018666H783.786667c54.528 0.042667 98.773333 42.581333 98.773333 95.018666v47.488h49.450667c13.098667 0 25.685333 4.992 34.901333 13.952 9.301333 8.917333 14.464 20.992 14.464 33.578667v285.013333c0 26.197333-22.186667 47.488-49.450667 47.488zM103.552 397.610667h177.792v-31.445334h-67.413333v-193.024H177.066667v193.024H103.552v31.445334z m191.018667 0h156.970666v-31.445334H331.349333v-62.250666h112.64v-31.445334h-112.64v-67.882666h125.525334v-31.445334H294.570667V397.653333z m183.424 0h43.093333l76.373333-176.042667h1.28l76.032 176.042667h43.093334v-224.426667h-36.778667v154.624h-1.28l-66.005333-154.666667h-31.744l-66.048 154.666667h-1.237334v-154.666667h-36.778666V397.653333z m270.421333 0h93.013333c54.101333 0 81.450667-22.954667 81.450667-68.864 0-46.208-27.349333-69.461333-82.048-69.461334h-55.637333v-86.144h-36.778667V397.653333z m36.778667-31.445334v-75.434666h53.418666c16.341333 0 28.288 3.157333 35.84 8.789333 7.552 5.973333 11.306667 15.744 11.306667 29.226667 0 13.525333-4.053333 22.954667-11.605333 28.586666-7.552 5.973333-19.498667 8.832-35.541334 8.832h-53.418666zM185.514667 766.378667c0 12.672 5.12 24.789333 14.208 33.706666 9.173333 8.96 21.546667 13.994667 34.432 13.994667h389.12v-95.317333c0-25.258667 10.282667-49.493333 28.544-67.413334 18.218667-17.877333 43.008-27.861333 68.821333-27.861333h97.450667v-142.933333H185.514667v285.866666z m632.576-727.296c0-13.013333-5.12-25.472-14.250667-34.688a48.469333 48.469333 0 0 0-34.389333-14.378667H234.154667c-26.88 0-48.64 22.016-48.64 49.066667v49.066666h632.576v-49.066666zM246.741333 609.109333h387.712v-71.424H246.741333V609.109333z m0 106.88h244.864v-46.634666h-244.906666V715.989333z"  horiz-adv-x="1024" />

    
    <glyph glyph-name="icon-sjcz" unicode="&#58934;" d="M460.8 312.832v234.24l-99.584-14.208a18.048 18.048 0 0 0-20.608 5.546667 16.512 16.512 0 0 0 0.128 20.650666L499.285333 855.338667a17.92 17.92 0 0 0 13.994667 6.613333c5.504 0 10.666667-2.432 13.994667-6.613333l159.445333-296.277334a16.554667 16.554667 0 0 0 0.085333-20.608 18.005333 18.005333 0 0 0-20.565333-5.589333l-100.437333 14.208v-242.048l208.341333-144.64 47.104 86.784a17.493333 17.493333 0 0 0 16.768 12.8 18.090667 18.090667 0 0 0 10.666667-3.285333c3.114667-2.133333 5.461333-5.248 6.570666-8.96l154.624-298.624a16.512 16.512 0 0 0-2.645333-14.805334 17.834667 17.834667 0 0 0-13.824-7.04l-341.504 50.346667a17.578667 17.578667 0 0 0-17.365333 12.032 16.768 16.768 0 0 0 7.424 19.328l70.442666 69.418667-204.16 141.738666-197.888-148.565333 70.442667-69.376a16.768 16.768 0 0 0 7.424-19.370667 17.578667 17.578667 0 0 0-17.365333-12.032l-341.504-50.346666a17.834667 17.834667 0 0 0-13.781334 7.04 16.512 16.512 0 0 0-2.645333 14.848l154.581333 298.624a16.981333 16.981333 0 0 0 6.570667 8.96 18.090667 18.090667 0 0 0 10.666667 3.242666 17.493333 17.493333 0 0 0 16.768-12.8L248.618667 153.60000000000002l212.138666 159.274667z"  horiz-adv-x="1024" />

    
    <glyph glyph-name="icon-yxls" unicode="&#58935;" d="M612.778667-85.88800000000003H144.426667c-47.104 0-85.333333 33.621333-85.333334 75.093333V773.717333c0 19.925333 8.96 39.04 25.002667 53.12 16 14.08 37.717333 22.016 60.373333 22.016h678.357334c38.570667 0 85.290667-25.728 85.333333-62.592v-378.410666a309.845333 309.845333 0 0 1-144.64 35.413333c-165.034667 0-298.837333-127.146667-298.837333-283.946667 0-104.533333 59.52-195.925333 148.096-245.162666zM760.576 758.613333H185.429333c-19.968 0-36.138667-19.498667-36.138666-43.52v-48.213333c0-23.978667-0.128-43.434667 0-43.434667h647.424c0.085333 0 0 19.456 0 43.477334v48.213333c0 24.021333-16.213333 43.52-36.138667 43.52zM497.92 578.3893330000001H150.570667c-1.749333-3.242667-1.28-6.485333-1.28-14.506666V533.333333h348.629333V563.925333c0 7.978667 2.090667 13.312 0 14.506667z m-99.626667-135.253333H149.248v-45.056h249.045333V428.672c0 7.978667 2.005333 15.189333 0 14.506667z m369.450667-90.026667a212.906667 212.906667 0 1 0 0.085333-425.856 212.906667 212.906667 0 0 0-0.085333 425.813334z m103.850667-340.224a25.6 25.6 0 0 1 19.925333 9.557334 26.154667 26.154667 0 0 1-3.584 36.48l-101.418667 79.061333v98.986667a25.856 25.856 0 0 1-25.728 25.984 25.856 25.856 0 0 1-25.685333-26.026667v-111.274667c0-7.808 3.413333-15.146667 9.386667-20.053333l110.848-86.869333a25.514667 25.514667 0 0 1 16.256-5.845334z"  horiz-adv-x="1024" />

    
    <glyph glyph-name="icon-statistics2" unicode="&#58936;" d="M908.714667 768L981.333333 686.08l-348.714666-318.933333-229.034667 243.2-290.218667-281.472L42.666667 418.517333 401.834667 768l232.533333-244.608L908.714667 768z m45.312-221.141333V5.973333000000025H42.666667v140.16l364.245333 340.053334 221.013333-245.973334 326.101334 306.645334z"  horiz-adv-x="1024" />

    
    <glyph glyph-name="icon-gj" unicode="&#58937;" d="M625.109333 325.589333l213.76 207.36c17.152-40.661333 26.666667-85.162667 26.666667-131.84 0-191.829333-160.256-347.349333-357.973333-347.349333a367.701333 367.701333 0 0 0-111.957334 17.322667l-170.88-175.488a38.613333 38.613333 0 0 0-53.418666 0L11.050667 61.35466699999995c-14.72 14.336-14.72 47.744 0 62.037333l160.256 158.122667a337.493333 337.493333 0 0 0-21.76 119.594666c0 191.829333 160.256 347.306667 357.973333 347.306667 58.666667 0 114.048-13.653333 162.901333-37.930667l-221.013333-214.4a35.882667 35.882667 0 0 1 0-51.882666l122.24-118.613334a38.613333 38.613333 0 0 1 53.461333 0z m-33.493333 57.941334l-80.384 83.2 221.653333 214.186666-128.170666 122.026667L696.917333 896 1024 579.5840000000001 934.528 486.4 815.786667 605.568l-224.170667-222.037333z"  horiz-adv-x="1024" />

    
    <glyph glyph-name="icon-addfile" unicode="&#58938;" d="M845.198222 542.264889L612.807111 774.257778a27.192889 27.192889 0 0 1-19.342222 7.964444H184.433778A13.653333 13.653333 0 0 1 170.666667 768.568889v-777.216c0-7.566222 6.144-13.653333 13.653333-13.653333h655.36a13.653333 13.653333 0 0 1 13.653333 13.653333V522.979556a27.875556 27.875556 0 0 1-8.135111 19.342222z m-52.792889-491.52H231.537778V721.351111h363.52v-196.949333h197.290666v-473.543111zM479.573333 334.16533300000003H345.543111v-66.389333h134.087111v-143.303111h66.389334v143.36h140.003555V334.051556H546.133333V472.519111H479.573333v-138.410667z"  horiz-adv-x="1024" />

    
    <glyph glyph-name="icon-menu" unicode="&#58939;" d="M341.333333 810.666667a128 128 0 0 0 128-128v-256H213.333333a128 128 0 0 0-128 128V682.666667a128 128 0 0 0 128 128h128z m341.333334 0h128a128 128 0 0 0 128-128v-128a128 128 0 0 0-128-128h-256V682.666667a128 128 0 0 0 128 128zM341.333333-42.66666699999996H213.333333a128 128 0 0 0-128 128v128a128 128 0 0 0 128 128h256v-256a128 128 0 0 0-128-128z m341.333334 0a128 128 0 0 0-128 128v256h256a128 128 0 0 0 128-128v-128a128 128 0 0 0-128-128h-128z"  horiz-adv-x="1024" />

    
    <glyph glyph-name="icon-refresh-thin" unicode="&#58940;" d="M777.329778 289.962667c-6.656-144.156444-122.88-258.958222-265.272889-258.958223-146.716444 0-265.671111 121.742222-265.671111 272.099556 0 145.806222 112.071111 264.874667 252.757333 271.758222V445.44l278.243556 155.477333L499.2 782.222222v-129.536C316.586667 645.688889 170.666667 491.861333 170.666667 303.10400000000004c0-193.194667 152.917333-349.866667 341.447111-349.866667 184.32 0 334.506667 149.617778 341.219555 336.725334h-76.003555z"  horiz-adv-x="1024" />

    
    <glyph glyph-name="icon-about" unicode="&#58941;" d="M170.666667 725.333333h63.061333v-640H170.666667V725.333333z m649.813333-73.472h50.730667v-173.44h-50.773334V651.8613330000001zM265.216 725.333333h395.648a128 128 0 0 0 128-128v-384a128 128 0 0 0-128-128H265.258667V725.333333z m555.178667-272.085333h50.773333v-173.397333h-50.773333v173.397333zM330.453333 651.605333v-110.634666h381.013334V651.605333h-381.013334z m172.8-189.824l-74.666666-0.256-69.674667-212.821333 57.941333-0.298667-32.384-110.250666 119.168 180.309333h-55.765333l44.885333 108.288h80.64c17.493333-0.554667 25.173333-4.48 20.608-26.666667-0.426667-2.048-14.037333-67.328-40.704-117.76-5.546667-10.453333-15.445333-15.701333-29.738666-15.786666h-38.186667l-24.533333-35.328h103.765333c51.285333 11.306667 98.474667 154.581333 85.888 191.061333-8.405333 24.32-26.965333 37.504-55.722667 39.552h-91.562666z"  horiz-adv-x="1024" />

    
    <glyph glyph-name="icon-drdc" unicode="&#58942;" d="M971.306667 721.408v-713.514667c0-12.373333-2.773333-24.618667-8.277334-36.693333a110.848 110.848 0 0 0-54.698666-54.698667c-12.074667-5.504-24.32-8.277333-36.693334-8.277333H157.952c-12.373333 0-24.618667 2.773333-36.693333 8.277333a110.848 110.848 0 0 0-54.698667 54.698667 86.4 86.4 0 0 0-8.32 36.693333V721.408c0 12.373333 2.816 24.618667 8.32 36.693333 5.504 12.074667 13.013333 22.784 22.442667 32.213334 9.429333 9.472 20.181333 16.981333 32.256 22.485333 12.074667 5.504 24.234667 8.277333 36.693333 8.277333H207.786667c9.813333 0 18.773333-2.432 26.88-7.381333a42.538667 42.538667 0 0 0 17.066666-17.066667c6.528-9.813333 9.813333-19.072 9.813334-27.904a31.445333 31.445333 0 0 0-9.813334-22.912c-3.242667-6.528-8.917333-12.245333-17.066666-17.109333-8.106667-4.864-17.408-7.424-26.88-7.381333a50.773333 50.773333 0 0 1-34.261334-15.658667c-9.813333-9.813333-15.018667-21.162667-15.658666-34.218667v-375.338666c0.64-13.013333 5.888-24.618667 15.658666-34.688 9.813333-10.069333 21.162667-15.530667 34.261334-16.170667h106.538666c21.546667-3.925333 43.52-19.498667 66.005334-46.933333 22.528-27.306667 69.248-43.008 140.330666-46.848 71.722667 4.565333 118.4 21.290667 140.288 50.346666 21.845333 28.928 41.941333 45.738667 60.16 50.304h100.693334a50.773333 50.773333 0 0 1 34.261333 15.658667c9.813333 9.813333 15.018667 21.162667 15.658667 34.261333V671.573333a50.730667 50.730667 0 0 1-15.658667 34.261334 50.602667 50.602667 0 0 1-34.261333 15.658666 52.309333 52.309333 0 0 0-34.688 15.658667 46.250667 46.250667 0 0 0-15.146667 34.218667c0 13.013333 5.077333 24.448 15.146667 34.261333 10.069333 9.813333 21.674667 15.018667 34.688 15.658667h49.834666c12.373333 0 24.618667-2.773333 36.693334-8.277334 12.074667-5.589333 22.656-13.226667 31.744-22.954666 9.728-9.386667 17.365333-19.968 22.954666-32 5.546667-12.032 8.277333-24.277333 8.277334-36.650667zM277.674667 516.48c-4.992 7.978667-7.04 14.208-5.973334 18.730667 0.981333 4.48 5.973333 6.741333 15.018667 6.741333h96.213333V799.018667a47.786667 47.786667 0 0 0 10.197334 27.946666 31.189333 31.189333 0 0 0 23.68 12.8h35.84c10.026667-0.554667 17.92-4.821333 23.722666-12.8 5.76-7.978667 7.637333-17.28 5.632-27.946666v-414.933334c-13.013333-15.36-27.221333-23.082667-39.594666-23.082666-12.373333 0-29.397333 7.68-44.373334 23.082666l-120.32 132.394667z m469.504 69.205333c-3.242667 5.12 7.04-14.208 5.973333-18.730666-0.981333-4.48-5.973333-6.741333-15.018667-6.741334h-96.213333v-256a47.786667 47.786667 0 0 0-10.154667-27.989333 31.189333 31.189333 0 0 0-23.722666-12.757333h-35.84a29.781333 29.781333 0 0 0-23.722667 12.8 34.816 34.816 0 0 0-5.632 27.904V718.08c13.013333 15.36 27.221333 23.082667 39.594667 23.082667 12.373333 0 29.44-7.68 44.373333-23.082667l120.32-132.394667z"  horiz-adv-x="1024" />

    
    <glyph glyph-name="icon-target" unicode="&#58943;" d="M563.882667 730.282667A341.674667 341.674667 0 0 0 859.591111 434.631111h88.291556v-85.333333H859.591111a341.617778 341.617778 0 0 0-295.708444-295.708445v-88.291555h-85.333334v88.291555a341.617778 341.617778 0 0 0-295.708444 295.708445H94.549333v85.333333h88.291556a341.674667 341.674667 0 0 0 295.708444 295.708445V818.631111h85.333334v-88.291555zM394.808889 390.087111a128.170667 128.170667 0 1 0 256.341333 0 128.170667 128.170667 0 0 0-256.341333 0z m126.293333-254.179555c141.255111 0 256 114.801778 256 256s-114.744889 256-256 256a256.284444 256.284444 0 0 1-256-256c0-141.198222 114.915556-256 256-256z"  horiz-adv-x="1024" />

    
    <glyph glyph-name="icon-link" unicode="&#58944;" d="M577.308444 476.899556l2.787556-2.787556c65.080889-65.024 59.562667-167.651556-5.518222-232.675556l-115.370667-119.580444a168.220444 168.220444 0 0 0-236.885333 0l-2.844445 2.844444a167.651556 167.651556 0 0 0 0 236.544l33.792 33.564445a36.977778 36.977778 0 0 0 28.672 13.539555 37.034667 37.034667 0 0 0 22.983111-65.991111l-31.118222-35.384889a90.510222 90.510222 0 0 1 0-128.056888l2.844445-2.844445c35.384889-35.271111 92.899556-35.271111 128.284444 0l115.370667 119.466667c35.384889 35.384889 45.966222 96.142222 10.581333 131.413333l-2.844444 2.844445a128.967111 128.967111 0 0 1-9.329778 8.248888 34.304 34.304 0 0 0-16.384 29.127112 34.133333 34.133333 0 0 0 57.799111 24.576c5.973333-4.551111 11.776-9.443556 17.180444-14.848z m195.356445 196.892444a166.684444 166.684444 0 0 0 48.583111-122.88 166.456889 166.456889 0 0 0-48.64-113.322667l-44.544-35.953777a36.408889 36.408889 0 0 0-28.672-13.880889 36.636444 36.636444 0 0 0-21.788444 66.161777l40.96 37.831112c35.271111 35.214222 35.271111 92.615111 0 127.886222l-2.787556 2.787555a90.282667 90.282667 0 0 1-127.658667 0L459.207111 496.298667c-35.214222-35.271111-48.583111-86.584889-13.368889-121.856l2.787556-2.673778c5.461333-5.518222 13.425778-11.377778 17.635555-20.878222a32.142222 32.142222 0 0 0-52.849777-35.384889 157.127111 157.127111 0 0 0-9.102223 8.419555l-2.730666 2.673778c-64.853333 65.024-61.326222 158.833778 3.584 223.800889l128.739555 126.179556a167.196444 167.196444 0 0 0 235.975111 0l2.844445-2.787556z"  horiz-adv-x="1024" />

    
    <glyph glyph-name="icon-setting3" unicode="&#58945;" d="M963.754667 279.59466699999996a93.312 93.312 0 0 1-12.074667 8.064 103.168 103.168 0 0 0-48.768 36.778666 100.053333 100.053333 0 0 0-18.56 60.032c0 23.466667 7.381333 44.544 22.144 62.976a118.229333 118.229333 0 0 0 53.248 38.826667c5.461333 2.005333 10.666667 6.229333 15.744 12.586667 4.949333 6.4 6.784 15.317333 5.418667 26.709333a241.92 241.92 0 0 1-15.616 57.984c-7.68 19.157333-16.554667 33.450667-26.624 42.837333a31.146667 31.146667 0 0 1-19.626667 9.088 30.549333 30.549333 0 0 1-19.584-4.053333 130.56 130.56 0 0 0-65.493333-11.562667 90.538667 90.538667 0 0 0-59.392 26.709334 101.12 101.12 0 0 0-29.184 56.490666 107.349333 107.349333 0 0 0 8.106666 61.482667c1.365333 2.688 2.645333 7.253333 4.010667 13.653333a22.954667 22.954667 0 0 1-2.986667 17.578667 97.28 97.28 0 0 1-21.717333 24.192 123.050667 123.050667 0 0 1-29.738667 18.176 188.373333 188.373333 0 0 1-32.64 11.093333 129.834667 129.834667 0 0 1-30.72 4.053334c-6.144 0-11.989333-2.858667-17.664-8.576a65.28 65.28 0 0 1-12.586666-16.64 105.344 105.344 0 0 0-38.272-49.92 103.68 103.68 0 0 0-62.421334-19.669334c-22.784 0-42.624 6.912-59.392 20.693334a121.045333 121.045333 0 0 0-36.266666 47.914666 51.925333 51.925333 0 0 1-10.496 17.664A26.197333 26.197333 0 0 1 381.866667 853.333333c-6.656 0-15.786667-1.194667-27.136-3.541333a231.552 231.552 0 0 1-35.285334-10.581333c-12.074667-4.736-23.296-10.666667-33.706666-17.706667-10.453333-7.04-17.664-15.232-21.674667-24.661333a22.4 22.4 0 0 1-1.450667-14.122667c0.981333-5.376 2.133333-10.112 3.541334-14.122667 0.64-4.053333 1.536-10.709333 2.474666-20.181333 1.066667-9.386667 1.066667-19.797333 0-31.232a163.413333 163.413333 0 0 0-7.04-34.816 72.832 72.832 0 0 0-17.578666-29.738667 102.4 102.4 0 0 0-57.898667-28.714666 121.301333 121.301333 0 0 0-62.933333 7.594666 89.173333 89.173333 0 0 1-16.64 4.010667 23.466667 23.466667 0 0 1-15.616-4.010667 62.464 62.464 0 0 1-18.602667-18.645333 174.890667 174.890667 0 0 1-15.104-27.733333 199.296 199.296 0 0 1-10.581333-31.274667C44.032 543.104 42.666667 533.333333 42.666667 524.586667c0-7.978667 2.048-15.914667 6.101333-23.68 4.010667-7.722667 9.002667-12.586667 14.933333-14.506667 20.053333-8.106667 38.186667-20.778667 54.314667-38.314667 16.128-17.493333 24.149333-37.973333 24.149333-61.482666 0-22.869333-8.021333-43.52-24.149333-62.037334-16.128-18.517333-34.176-31.744-54.314667-39.850666-11.477333-4.053333-18.133333-13.44-20.138666-28.202667-1.365333-8.106667-0.64-18.346667 2.005333-30.762667 2.688-12.501333 6.528-24.533333 11.562667-36.309333 5.12-11.733333 10.752-22.528 17.109333-32.298667 6.442667-9.685333 13.312-15.914667 20.693333-18.56 9.429333-4.053333 18.816-4.736 28.245334-2.090666 14.72 4.736 29.141333 7.466667 43.264 8.106666a137.813333 137.813333 0 0 0 38.272-3.541333c13.397333-2.986667 24.789333-9.514667 34.176-19.626667 15.488-16.810667 24.064-35.157333 25.685333-54.954666 1.664-19.882667-1.152-37.504-8.533333-52.992-5.376-11.392-7.936-20.352-7.594667-26.709334a31.061333 31.061333 0 0 1 5.546667-16.64c4.736-6.698667 11.776-13.397333 21.162666-20.096 9.386667-6.741333 19.968-12.672 31.701334-17.706666 11.776-4.992 23.509333-9.216 35.285333-12.586667 11.733333-3.413333 22.314667-5.077333 31.701333-5.077333 8.106667 0 15.445333 1.834667 22.058667 5.504a34.346667 34.346667 0 0 1 15.146667 17.664c7.381333 20.181333 20.309333 37.802667 38.826666 52.906666a95.146667 95.146667 0 0 0 61.866667 22.741334 92.586667 92.586667 0 0 0 61.952-22.698667c17.749333-15.146667 30.293333-33.066667 37.717333-53.930667h0.981334c2.133333-5.333333 5.802667-10.410667 11.093333-15.146666 5.461333-4.693333 11.093333-7.04 17.066667-7.04 8.832 0 18.858667 1.365333 30.293333 3.968 11.434667 2.730667 22.4 6.4 32.725333 11.093333 10.368 4.736 19.968 9.941333 28.714667 15.701333 8.618667 5.674667 15.104 11.221333 19.114667 16.64 8.704 13.44 9.685333 26.837333 3.029333 40.32a113.578667 113.578667 0 0 0-9.088 61.482667c2.645333 21.546667 12.16 40.704 28.288 57.472 7.253333 8.064 16.298667 13.866667 26.624 17.152 10.325333 3.328 20.736 5.546667 31.146667 6.528 10.410667 0.938667 20.565333 0.64 30.72-1.024 10.069333-1.706667 18.517333-3.541333 25.173333-5.546667 7.381333-2.730667 14.08-4.010667 20.053333-4.010666 6.101333 0 13.141333 2.005333 21.248 6.058666 7.936 4.053333 15.445333 10.709333 22.144 20.181334 6.656 9.386667 12.330667 20.010667 17.066667 31.744 4.693333 11.733333 8.106667 23.381333 10.026667 34.773333 2.133333 11.434667 2.432 21.12 1.066666 29.226667a45.184 45.184 0 0 1-15.146666 23.168z m-250.581334 20.736a226.688 226.688 0 0 0-46.848-70.101334 215.04 215.04 0 0 0-70.058666-47.36 215.936 215.936 0 0 0-85.504-17.152 212.821333 212.821333 0 0 0-85.034667 17.152 217.173333 217.173333 0 0 0-69.418667 47.36 228.266667 228.266667 0 0 0-46.848 70.101334 213.589333 213.589333 0 0 0-17.109333 85.162666 213.333333 213.333333 0 0 0 17.109333 85.162667 219.904 219.904 0 0 0 116.224 116.48 213.12 213.12 0 0 0 85.077334 17.152c30.122667 0 58.752-5.717333 85.504-17.152a218.965333 218.965333 0 0 0 70.058666-46.933333c19.84-19.754667 35.413333-43.008 46.805334-69.546667 11.434667-26.496 17.066667-54.912 17.066666-85.162667 0-30.165333-5.632-58.624-17.066666-85.162666z"  horiz-adv-x="1024" />

    
    <glyph glyph-name="icon-flag" unicode="&#58946;" d="M56.888889 896h910.222222v-1024l-455.111111 243.370667L56.888889-128z"  horiz-adv-x="1024" />

    
    <glyph glyph-name="icon-filter" unicode="&#58947;" d="M823.751111 839.111111H91.249778c-11.320889 0-26.396444-15.36-30.151111-26.794667-7.566222-11.491556-3.811556-30.663111 3.754666-42.097777L321.536 426.097778v-317.781334c0-11.491556 7.566222-26.794667 22.698667-30.663111l192.568889-88.064c3.754667-3.811556 11.320889-3.811556 15.075555-3.811555 7.566222 0 15.132444 0 18.887111 3.811555 11.377778 7.68 18.887111 15.36 18.887111 30.663111l11.377778 409.713778 249.173333 344.064c11.377778 7.623111 11.377778 22.983111 7.566223 38.286222-7.566222 11.491556-18.887111 26.794667-33.962667 26.794667z m-426.666667-707.811555V399.303111h132.152889l-11.320889-325.404444-120.832 57.400889z m143.473778 344.576H378.197333L174.307556 762.538667h570.197333L548.124444 479.744c-3.754667 0-3.754667-3.868444-7.566222-3.868444z m396.231111-219.648c15.132444 0 30.321778-15.701333 30.321778-31.402667v-15.644445c0-15.701333-15.189333-31.402667-30.321778-31.402666H694.044444c-15.189333 0-30.321778 15.701333-30.321777 31.402666v15.644445c0 15.701333 15.132444 31.402667 30.321777 31.402667h242.744889z m0 167.594666c15.132444 0 30.321778-15.701333 30.321778-31.345778v-15.701333c0-15.701333-15.189333-31.402667-30.321778-31.402667H694.044444c-15.189333 0-30.321778 15.701333-30.321777 31.402667v15.701333c0 15.644444 15.132444 31.345778 30.321777 31.345778h242.744889z m0-329.386666c15.132444 0 30.321778-15.758222 30.321778-31.402667v-15.701333c0-15.701333-15.189333-31.402667-30.321778-31.402667H694.044444c-15.189333 0-30.321778 15.701333-30.321777 31.402667v15.701333c0 15.644444 15.132444 31.345778 30.321777 31.345778h242.744889z"  horiz-adv-x="1024" />

    
    <glyph glyph-name="icon-question" unicode="&#58948;" d="M512 674.9297779999999a288.995556 288.995556 0 0 0 205.710222-85.219556A288.995556 288.995556 0 0 0 802.929778 384a288.995556 288.995556 0 0 0-85.219556-205.710222A288.995556 288.995556 0 0 0 512 93.07022199999994a288.995556 288.995556 0 0 0-205.710222 85.219556A288.995556 288.995556 0 0 0 221.070222 384a288.995556 288.995556 0 0 0 85.219556 205.710222A288.995556 288.995556 0 0 0 512 674.9297779999999zM512 725.333333a339.057778 339.057778 0 0 1-241.322667-100.010666A339.057778 339.057778 0 0 1 170.666667 384a339.057778 339.057778 0 0 1 100.010666-241.322667A339.057778 339.057778 0 0 1 512 42.66666699999996a339.057778 339.057778 0 0 1 241.322667 100.010666A339.057778 339.057778 0 0 1 853.333333 384a339.057778 339.057778 0 0 1-100.010666 241.322667A339.000889 339.000889 0 0 1 512 725.333333zM603.192889 554.0977780000001c21.617778-21.674667 32.426667-49.891556 32.426667-84.593778 0-35.555556-17.92-72.817778-60.188445-111.786667-25.258667-23.153778-38.627556-42.951111-38.627555-72.817777l-0.284445-9.216c-0.967111-15.189333-9.443556-22.983111-24.462222-22.983112-15.132444 0-22.186667 9.784889-22.186667 24.860445l0.113778 2.275555c0 29.013333-0.341333 43.406222 4.551111 56.433778 5.006222 13.084444 15.701333 31.687111 33.28 49.379556l17.976889 17.976889c24.120889 24.462222 38.115556 45.283556 38.115556 69.063111 0 20.366222-5.006222 33.792-18.033778 46.876444a66.958222 66.958222 0 0 1-49.493334 19.569778c-45.909333-2.048-72.988444-21.845333-78.279111-78.791111-5.233778-56.945778 0-0.682667 0-1.024-0.568889-14.165333-10.979556-25.372444-23.665777-25.372445-12.743111 0-23.096889 11.207111-23.779556 25.372445 0 45.056 11.491556 62.008889 34.360889 88.177778 22.926222 26.112 54.101333 39.139556 93.582222 39.139555 34.816 0 62.976-10.808889 84.593778-32.540444zM511.374222 156.44444399999998a33.28 33.28 0 0 0-33.052444 33.507556c0 18.488889 14.791111 33.450667 33.052444 33.450667 18.318222 0 33.109333-14.961778 33.109334-33.450667 0-18.488889-14.791111-33.507556-33.109334-33.507556z"  horiz-adv-x="1024" />

    
    <glyph glyph-name="icon-right2" unicode="&#58949;" d="M512 725.333333C324.266667 725.333333 170.666667 571.733333 170.666667 384s153.6-341.333333 341.333333-341.333333 341.333333 153.6 341.333333 341.333333-153.6 341.333333-341.333333 341.333333z m-35.441778-558.535111L294.798222 346.396444l62.008889 61.326223 119.751111-118.272 252.643556 249.742222 62.065778-61.383111-314.709334-311.011556z"  horiz-adv-x="1024" />

    
    <glyph glyph-name="icon-save" unicode="&#58950;" d="M836.096 634.311111c-1.137778 1.137778 11.207111-14.279111 14.279111-22.812444 3.128889-9.102222 2.958222-17.635556 2.958222-27.079111v-541.240889a54.215111 54.215111 0 0 0-54.101333-53.987556H167.822222A54.215111 54.215111 0 0 0 113.777778 43.17866700000002V728.007111c0 29.696 24.348444 54.044444 54.101333 54.044445h476.103111c12.913778 0 26.168889 1.365333 38.684445-3.128889 8.533333-3.072 9.955556-8.078222 16.327111-14.620445l137.102222-130.048zM285.752889 721.408v-215.438222h341.902222V721.464889h-341.902222zM227.555556 73.27288899999996h512V403.911111H227.555556v-330.638222z m593.180444 43.576889v38.115555h-44.771556v-38.115555h44.771556zM284.444444 327.11111100000005h398.222223v-56.888889H284.444444v56.888889z m0-113.777778h398.222223v-56.888889H284.444444v56.888889z m207.872 477.809778h95.800889V531.342222H492.316444V691.143111z"  horiz-adv-x="1024" />

    
    <glyph glyph-name="icon-stop" unicode="&#58951;" d="M512-14.222221999999988A398.222222 398.222222 0 1 0 512 782.222222a398.222222 398.222222 0 0 0 0-796.444444z m0 61.269333A336.952889 336.952889 0 1 1 512 720.952889a336.952889 336.952889 0 0 1 0-673.905778zM398.222222 497.777778h227.555556v-227.555556H398.222222V497.777778z"  horiz-adv-x="1024" />

    
    <glyph glyph-name="icon-text" unicode="&#58952;" d="M113.777778 782.222222h652.344889v-64.455111H113.777778V782.222222z m0-128.967111h377.287111V588.8H113.777778V653.2551109999999z m0-515.754667h354.986666v-64.512H113.777778v64.512zM113.777778 8.53333299999997h248.32v-64.455111H113.777778V8.53333299999997z m0 451.299556h312.832V395.377778H113.777778V459.832889z m0-128.910222h312.832v-64.512H113.777778V330.92266700000005zM508.188444 8.53333299999997H637.155556v-64.455111H508.188444V8.53333299999997z m180.906667 0h136.533333v-64.455111h-136.533333V8.53333299999997zM735.914667 666.339556l0.170666 0.284444c8.704 17.123556 28.273778 25.088 45.397334 16.327111l98.872889-50.631111c17.066667-8.704 22.186667-29.297778 13.482666-46.478222l0.853334-0.398222-24.234667-47.616-159.971556 81.521777 24.234667 47.559111 1.137778-0.568888z m-31.971556-63.544889l161.28-82.147556-179.996444-353.28-161.28 82.147556 179.996444 353.28z m-189.610667-368.298667l160.426667-82.602667-154.168889-102.968889-6.257778 185.571556z"  horiz-adv-x="1024" />

    
    <glyph glyph-name="icon-run" unicode="&#58953;" d="M383.203556 322.84444399999995c21.048889-26.737778 43.804444-55.523556 71.907555-82.887111-64.170667-67.299556-157.752889-128.568889-341.333333-128.568889v122.538667c145.578667 0 204.515556 43.975111 256.682666 105.016889l12.743112-16.099556zM496.810667 443.733333c12.686222-16.042667 24.632889-31.061333 36.977777-44.885333 42.780444 42.837333 96.483556 73.386667 199.168 79.303111l-31.516444-72.476444a6.769778 6.769778 0 0 1 2.56-8.362667 8.533333 8.533333 0 0 1 9.557333 0l193.592889 135.111111a6.940444 6.940444 0 0 1 3.072 5.688889c0 2.218667-1.137778 4.323556-3.072 5.688889l-193.592889 134.997333a8.533333 8.533333 0 0 1-9.557333 0.056889 6.769778 6.769778 0 0 1-2.616889-8.362667l32.426667-74.524444c-138.979556-6.599111-220.956444-50.062222-278.698667-101.774222 15.473778-17.237333 29.070222-34.417778 41.699556-50.460445z m220.444444-85.333333a7.793778 7.793778 0 0 1-9.386667 0 7.623111 7.623111 0 0 1-2.503111-8.988444l30.947556-77.824c-144.213333 9.102222-190.008889 72.362667-246.727111 150.926222C424.903111 512 344.519111 623.3884439999999 113.777778 623.3884439999999v-126.293333c165.376 0 212.650667-65.422222 272.440889-148.195555 62.407111-86.471111 139.377778-192.853333 350.947555-203.832889l-31.857778-79.985778a7.623111 7.623111 0 0 1 2.56-8.988445 7.793778 7.793778 0 0 1 9.386667 0l189.952 145.066667c25.713778 19.342222 3.015111 3.697778 3.015111 6.087111a7.623111 7.623111 0 0 1-3.015111 6.087111l-189.952 145.066667z"  horiz-adv-x="1024" />

    
    <glyph glyph-name="icon-calendar" unicode="&#58954;" d="M219.420444 481.507556v-390.087112h585.159112V627.825778h-97.507556v-48.753778h-48.810667v48.753778H365.795556v-48.753778H316.871111v48.753778H219.420444V530.204444h585.159112v-48.753777H219.420444zM365.795556 676.579556h292.522666V725.333333h48.810667v-48.753777H853.333333V42.66666699999996H170.666667V676.579556h146.261333V725.333333h48.810667v-48.753777zM316.871111 384h97.564445v-48.753778H316.871111V384z m0-146.261333h97.564445v-48.810667H316.871111v48.810667zM463.246222 384h97.507556v-48.753778H463.246222V384z m0-146.261333h97.507556v-48.810667H463.246222v48.810667zM609.507556 384h97.564444v-48.753778h-97.564444V384z m0-146.261333h97.564444v-48.810667h-97.564444v48.810667z"  horiz-adv-x="1024" />

    
    <glyph glyph-name="icon-star" unicode="&#58955;" d="M826.823111 782.222222H174.421333C140.970667 782.222222 113.777778 755.029333 113.777778 721.521778v-675.555556c0-33.507556 27.192889-60.700444 60.643555-60.700444h652.401778c33.450667 0 60.643556 27.192889 60.643556 60.700444V721.521778C887.466667 755.029333 860.273778 782.222222 826.823111 782.222222z m-223.744-48.184889a46.421333 46.421333 0 1 0 0-92.842666 46.421333 46.421333 0 0 0 0 92.842666z m156.103111 0a46.421333 46.421333 0 1 0 0-92.842666 46.421333 46.421333 0 0 0 0 92.842666z m67.072-682.268444H177.607111V595.626667h648.647111v-543.857778zM284.672 360.106667a17.180444 17.180444 0 0 0-6.485333 19.342222 17.806222 17.806222 0 0 0 16.952889 12.060444h142.961777l44.145778 132.551111a17.806222 17.806222 0 0 0 16.952889 11.946667c7.736889 0 14.563556-4.835556 16.952889-11.946667l44.145778-132.551111h142.961777c7.68 0 14.563556-4.835556 16.952889-12.003555a17.180444 17.180444 0 0 0-6.485333-19.456l-115.655111-81.92 44.202667-132.494222a17.180444 17.180444 0 0 0-6.485334-19.399112 18.204444 18.204444 0 0 0-20.992 0l-115.598222 81.92-115.655111-81.92a18.204444 18.204444 0 0 0-20.935111 0 17.180444 17.180444 0 0 0-6.485334 19.399112l44.202667 132.551111-115.655111 81.92z"  horiz-adv-x="1024" />

    
    <glyph glyph-name="icon-collapse" unicode="&#58956;" d="M113.777778 411.704889h120.490666v-94.776889H113.777778V411.704889z m625.777778 0V478.094222l168.277333-113.777778-168.277333-113.777777v66.389333H314.595556V411.704889H739.555556zM113.777778 668.444444h120.490666v-94.833777H113.777778V668.444444z m200.817778 0H796.444444v-94.833777H314.595556V668.444444zM113.777778 140.91377799999998h120.490666v-94.833778H113.777778v94.833778z m200.817778 0H796.444444v-94.833778H314.595556v94.833778z"  horiz-adv-x="1024" />

    
    <glyph glyph-name="icon-edit" unicode="&#58957;" d="M613.376 702.976l183.637333-183.637333-402.261333-402.261334-183.637333 183.637334 402.204444 402.204444zM194.218667 278.75555599999996l180.792889-183.751112-261.802667-88.746666 81.009778 272.497778z m624.924444 258.958222l-184.718222 178.744889 57.230222 57.230222a50.176 50.176 0 0 0 9.045333 10.752c19.171556 19.285333 49.095111 21.390222 68.266667 2.104889l115.882667-116.622222c19.228444-19.342222 17.066667-49.322667-2.104889-68.608a52.792889 52.792889 0 0 0-5.347556-4.664889L819.2 537.713778z m-230.798222-321.991111h321.308444v-94.492445h-321.308444v94.549334z m-153.770667-175.217778h467.342222v-87.608889H434.631111v87.608889z"  horiz-adv-x="1024" />

    
    <glyph glyph-name="icon-reset" unicode="&#58958;" d="M938.666667 490.496H405.504c-45.283556 0-82.033778-36.693333-82.033778-82.033778v-246.044444H138.922667A82.033778 82.033778 0 0 0 56.888889 244.45155599999998V757.077333C56.888889 802.360889 93.639111 839.111111 138.922667 839.111111h717.710222c45.283556 0 82.033778-36.750222 82.033778-82.033778v-266.581333z m-244.451556 0l201.671111-111.104-203.889778-84.707556 182.044445-211.797333-127.317333-98.474667-181.646223 234.723556-157.582222-136.248889V490.496h-1.991111c-45.283556 0-82.033778-36.693333-82.033778-82.033778v-184.547555H138.922667V757.077333h717.710222v-266.581333h-162.417778z m0 0h-286.72V648.533333l286.72-158.037333z"  horiz-adv-x="1024" />

    
    <glyph glyph-name="icon-feedback" unicode="&#58959;" d="M872.846222 554.609778h-71.566222v-321.080889H341.333333v-69.632a37.546667 37.546667 0 0 1 10.24-26.851556c6.826667-7.111111 16.099556-10.979556 25.713778-10.695111h389.176889L910.222222-14.222221999999988V517.0631109999999a37.489778 37.489778 0 0 1-10.808889 27.363556 34.190222 34.190222 0 0 1-26.567111 10.183111zM681.073778 725.333333H229.148444c-29.923556 0.170667-55.182222-23.381333-58.481777-54.613333V156.44444399999998l114.574222 114.801778h395.832889c29.923556-0.170667 55.182222 23.438222 58.481778 54.613334V670.72c-3.299556 31.288889-28.558222 54.840889-58.481778 54.670222zM368.64 468.081778H310.044444v54.954666H368.64v-54.954666z m114.574222 0H424.732444v54.954666h58.424889v-54.954666z m114.631111 0H539.306667v54.954666h58.481777v-54.954666z"  horiz-adv-x="1024" />

    
    <glyph glyph-name="icon-user" unicode="&#58960;" d="M763.448889 167.65155600000003c-1.479111 13.937778-0.967111 24.234667-0.967111 37.262222 6.712889 3.584 30.72 25.088 32.597333 43.008 5.290667 0.455111 13.937778 5.404444 16.327111 25.144889 1.422222 10.296889-3.868444 16.611556-7.224889 18.375111 8.647111 24.689778 12.515556 101.831111-47.957333 109.454222-6.257778 9.841778-22.072889 15.246222-42.666667 15.246222-82.488889-1.365333-106.951111-59.164444-88.746666-125.155555-3.413333-1.763556-8.647111-7.623111-7.224889-18.375111 2.389333-19.740444 11.036444-24.689778 16.327111-25.088 1.877333-18.432 25.884444-39.936 32.597333-43.064889 0-13.027556 0.512-22.869333-0.967111-37.205334-16.270222-41.301333-123.278222-31.630222-128.568889-121.742222h354.986667c-2.844444 91.477333-112.241778 80.440889-128.568889 122.140445zM741.831111 442.026667c-4.892444 6.656-27.136 12.743111-52.508444 12.743111-101.432889-1.536-131.527111-68.608-109.112889-145.066667-4.096-2.048-10.581333-8.817778-8.817778-21.276444 2.958222-22.869333 13.539556-28.558222 20.024889-29.127111 2.389333-21.276444 21.617778-46.250667 29.923555-49.891556 0-15.075556 0.568889-26.510222-1.137777-43.121778-26.396444-43.406222-140.117333-6.883556-147.626667-123.790222h-275.911111A25.429333 25.429333 0 0 0 170.666667 67.12888899999996V672.711111c0 13.653333 11.662222 24.689778 25.941333 24.689778h539.704889c14.279111 0 25.998222-11.093333 25.998222-24.689778v-235.747555a78.961778 78.961778 0 0 1-20.48 5.12zM431.502222 662.926222H272.497778v-138.126222c0.568889-9.500444 11.946667-14.677333 20.366222-9.557333l56.718222 34.304 61.724445-34.588445c8.533333-4.835556 19.626667 0.455111 20.195555 9.841778V662.869333z m-190.464-230.4c0-13.596444 11.662222-24.689778 25.941334-24.689778H484.124444a25.429333 25.429333 0 0 1 25.998223 24.689778 25.429333 25.429333 0 0 1-25.998223 24.689778H266.979556a25.429333 25.429333 0 0 1-25.941334-24.689778z m154.737778-183.068444a25.429333 25.429333 0 0 1-25.941333 24.689778H266.979556a25.429333 25.429333 0 0 1-25.941334-24.689778c0-13.596444 11.662222-24.689778 25.941334-24.689778h102.855111a25.429333 25.429333 0 0 1 25.941333 24.689778zM266.979556 320.284444h187.164444a25.429333 25.429333 0 0 1 25.941333 24.689778 25.429333 25.429333 0 0 1-25.941333 24.689778h-187.164444a25.429333 25.429333 0 0 1-25.941334-24.689778c0-13.596444 11.662222-24.689778 25.941334-24.689778z"  horiz-adv-x="1024" />

    
    <glyph glyph-name="icon-use" unicode="&#58961;" d="M766.464 346.16888900000004a237.738667 237.738667 0 1 1-365.795556-296.448H213.560889V725.333333h382.179555a170.666667 170.666667 0 0 0 170.666667-170.666666v-208.497778zM113.777778 725.333333h66.56v-675.669333H113.777778V725.333333z m685.966222-77.596444H853.333333v-183.068445h-53.589333V647.736889z m0-209.635556H853.333333v-183.068444h-53.589333V438.101333z m-517.290667 209.351111V530.773333h402.204445V647.3955559999999h-402.204445zM562.801778 408.405333a184.888889 184.888889 0 1 1 0-369.777777 184.888889 184.888889 0 0 1 0 369.777777z m-0.568889-309.361777a23.552 23.552 0 1 0 0 47.104 23.552 23.552 0 0 0 0-47.104z m40.732444 116.792888a66.218667 66.218667 0 0 1-17.976889-18.204444c-2.844444-7.907556-3.868444-16.270222-3.072-24.576h-41.358222v10.296889a64.398222 64.398222 0 0 0 6.769778 30.890667c6.883556 10.353778 15.928889 19.342222 26.396444 26.453333 8.533333 5.973333 16.497778 12.572444 23.893334 19.797333a25.372444 25.372444 0 0 1 5.916444 16.384 27.079111 27.079111 0 0 1-10.695111 21.390222 43.349333 43.349333 0 0 1-28.103111 8.931556 45.340444 45.340444 0 0 1-28.103111-9.216 55.011556 55.011556 0 0 1-15.985778-28.273778c-1.422222-7.907556-42.154667-11.377778-41.870222 4.778667 1.194667 17.92 10.126222 34.588444 24.689778 46.193778a91.079111 91.079111 0 0 0 59.050666 20.366222c22.641778 1.137778 44.885333-5.802667 62.407111-19.342222a56.718222 56.718222 0 0 0 21.902223-44.828445 46.648889 46.648889 0 0 0-7.623111-26.737778c-10.296889-12.913778-22.528-24.462222-36.238223-34.304z"  horiz-adv-x="1024" />

    
    <glyph glyph-name="icon-forbid" unicode="&#58962;" d="M258.275556 422.684444h512v-102.4h-512zM512 42.66666699999996A341.333333 341.333333 0 1 0 512 725.333333a341.333333 341.333333 0 0 0 0-682.666666z m0 97.507555a243.825778 243.825778 0 1 1 0 487.651556 243.825778 243.825778 0 0 1 0-487.651556z"  horiz-adv-x="1024" />

    
    <glyph glyph-name="icon-switch" unicode="&#58963;" d="M632.945778 214.81244400000003H431.672889V365.90933299999995h201.272889v103.537778l215.324444-181.703111-215.324444-194.730667v121.742223z m-250.766222 110.933334L190.293333 490.325333l191.886223 171.576889v-93.752889h201.728v-150.983111H382.179556v-91.420444z"  horiz-adv-x="1024" />

    
    <glyph glyph-name="icon-close" unicode="&#58964;" d="M523.377778 467.854222L723.285333 668.444444l87.950223-87.950222-199.907556-200.590222L819.2 168.96000000000004l-87.950222-87.950222L523.377778 291.95377800000006l-207.872-203.662222L227.555556 176.24177799999995l207.815111 203.662222-197.802667 200.590222L325.518222 668.444444z"  horiz-adv-x="1024" />

    
    <glyph glyph-name="icon-plus" unicode="&#58965;" d="M424.903111 471.096889V725.333333H542.151111v-254.236444H796.444444V353.848889H542.208V99.55555600000002H424.96V353.79200000000003H170.666667V471.04h254.236444z"  horiz-adv-x="1024" />

    
    <glyph glyph-name="icon-attention3" unicode="&#58966;" d="M544.654222 129.87733300000002a44.600889 44.600889 0 0 0-32.768-13.596444 45.397333 45.397333 0 0 0-33.052444 13.653333 44.032 44.032 0 0 0-13.937778 32.995556 44.373333 44.373333 0 0 0 13.937778 33.052444 44.373333 44.373333 0 0 0 33.052444 13.994667c12.743111 0 23.665778-4.551111 32.768-13.994667 9.443556-9.045333 13.937778-20.309333 13.937778-32.995555 0-13.084444-4.551111-23.950222-13.937778-33.109334z m-66.389333 389.688889c8.760889 12.117333 20.024889 18.375111 33.621333 18.375111 13.653333 0 24.917333-5.859556 33.678222-18.432 8.533333-12.117333 13.027556-27.420444 13.027556-45.909333 0-15.644444-18.204444-132.096-24.519111-216.746667h-43.975111c-5.176889 84.707556-25.201778 201.159111-25.201778 216.746667 0 18.090667 4.551111 33.393778 13.368889 45.909333z m415.630222-378.254222L581.404444 676.408889c-38.286222 65.251556-100.579556 65.251556-138.808888 0l-312.490667-535.096889c-38.229333-65.194667-6.997333-118.727111 69.575111-118.727111h624.981333c76.174222 0 107.52 53.475556 69.233778 118.727111z"  horiz-adv-x="1024" />

    
    <glyph glyph-name="icon-next" unicode="&#58967;" d="M533.162667 668.444444l341.845333-283.989333L533.048889 99.55555600000002V668.444444zM227.555556 491.52h305.607111v-209.806222H227.555556V491.463111z"  horiz-adv-x="1024" />

    
    <glyph glyph-name="icon-prev" unicode="&#58968;" d="M569.457778 668.444444L227.555556 384.455111 569.457778 99.55555600000002V668.444444z m305.493333-176.924444h-305.493333v-209.806222h305.493333V491.463111z"  horiz-adv-x="1024" />

    
    <glyph glyph-name="icon-next2" unicode="&#58969;" d="M419.384889 668.444444l341.845333-283.989333L419.271111 99.55555600000002V668.444444zM113.777778 491.52h305.607111v-209.806222H113.777778V491.463111zM739.555556 725.333333h113.777777v-682.666666h-113.777777V725.333333z"  horiz-adv-x="1024" />

    
    <glyph glyph-name="icon-prev2" unicode="&#58970;" d="M547.726222 668.444444L205.937778 384.455111 547.84 99.55555600000002V668.444444zM853.333333 491.52H547.726222v-209.806222H853.333333V491.463111zM227.555556 725.333333H113.777778v-682.666666h113.777778V725.333333z"  horiz-adv-x="1024" />

    
    <glyph glyph-name="icon-logout" unicode="&#58971;" d="M206.961778 218.73777800000005L382.065778 395.377778l175.104-176.696889a18.887111 18.887111 0 0 1 26.908444 0l191.146667 192.853333 98.702222-99.612444v289.564444H587.093333l107.349334-108.373333-123.790223-124.928-175.047111 176.696889a20.764444 20.764444 0 0 1-13.482666 5.632 18.944 18.944 0 0 1-13.482667-5.688889l-242.403556-244.622222a19.342222 19.342222 0 0 1 0-27.136l53.873778-54.385778a18.887111 18.887111 0 0 1 26.908445 0z"  horiz-adv-x="1024" />

    
    <glyph glyph-name="icon-attention2" unicode="&#58972;" d="M467.968 156.44444399999998a51.370667 51.370667 0 1 0 102.741333 0 51.370667 51.370667 0 0 0-102.741333 0z m117.418667 441.400889l-24.746667-306.346666a41.016889 41.016889 0 0 0-41.301333-39.651556 40.96 40.96 0 0 0-41.301334 39.651556l-24.746666 306.346666V597.9022219999999c0 35.84 29.582222 64.967111 66.048 64.967111 36.408889 0 66.048-29.127111 66.048-65.080889zM512 774.087111c52.736 0 103.822222-10.24 151.893333-30.72 46.421333-19.569778 88.177778-47.672889 124.017778-83.569778a388.437333 388.437333 0 0 0 114.289778-275.911111c0-52.736-10.24-103.822222-30.72-151.893333a388.437333 388.437333 0 0 0-83.569778-124.017778A388.437333 388.437333 0 0 0 512-6.25777800000003a387.982222 387.982222 0 0 0-151.893333 30.776889 388.437333 388.437333 0 0 0-124.017778 83.626667A388.437333 388.437333 0 0 0 121.799111 384c0 52.736 10.24 103.822222 30.72 151.893333 19.569778 46.421333 47.729778 88.177778 83.569778 124.017778A388.437333 388.437333 0 0 0 512 774.087111zM512 839.111111a455.111111 455.111111 0 1 1 0.056889-910.279111A455.111111 455.111111 0 0 1 512 839.111111z"  horiz-adv-x="1024" />

    
    <glyph glyph-name="icon-minus" unicode="&#58973;" d="M170.666667 440.888889h625.777777v-119.921778H170.666667z"  horiz-adv-x="1024" />

    
    <glyph glyph-name="icon-right" unicode="&#58974;" d="M453.404444 166.00177799999994l-12.288-11.264-12.174222 11.264L170.666667 422.4l98.702222 94.094222 171.804444-177.891555L780.629333 668.444444 870.4 579.982222z"  horiz-adv-x="1024" />

    
    <glyph glyph-name="icon-wrong" unicode="&#58975;" d="M523.377778 467.854222L723.285333 668.444444l87.950223-87.950222-199.907556-200.590222L819.2 168.96000000000004l-87.950222-87.950222L523.377778 291.95377800000006l-207.872-203.662222L227.555556 176.24177799999995l207.815111 203.662222-197.802667 200.590222L325.518222 668.444444z"  horiz-adv-x="1024" />

    
    <glyph glyph-name="icon-refresh" unicode="&#58976;" d="M692.167111 342.92622200000005c0-112.64-93.411556-203.946667-208.611555-203.946666s-208.611556 91.306667-208.611556 203.946666S368.355556 546.872889 483.555556 546.872889v-76.458667l173.681777 127.431111L483.555556 725.333333v-76.458666C310.727111 648.874667 170.666667 511.886222 170.666667 342.92622200000005S310.727111 36.977777999999944 483.555556 36.977777999999944 796.444444 173.96622200000002 796.444444 342.92622200000005h-104.277333z"  horiz-adv-x="1024" />

    
    <glyph glyph-name="icon-upload" unicode="&#58977;" d="M838.542222 529.863111a48.924444 48.924444 0 0 0 48.924445-48.867555v-260.664889a146.830222 146.830222 0 0 0-146.659556-146.659556H317.326222A146.773333 146.773333 0 0 0 170.666667 220.33066699999995V480.995556a48.810667 48.810667 0 1 0 97.735111 0v-260.664889a48.924444 48.924444 0 0 1 48.924444-48.867556h423.424a48.924444 48.924444 0 0 1 48.924445 48.867556V480.995556c0 27.022222 21.845333 48.867556 48.810666 48.867555z m-475.477333 13.539556c-13.084444 0-16.213333 7.68-6.940445 16.952889l157.013334 157.980444a23.779556 23.779556 0 0 0 33.735111 0L703.829333 560.355556c9.272889-9.272889 6.200889-16.952889-6.940444-16.952889h-47.729778c-13.084444 0-23.836444-10.808889-23.836444-23.950223v-95.971555a24.007111 24.007111 0 0 0-23.893334-23.950222H458.410667a23.893333 23.893333 0 0 0-23.836445 23.950222V519.452444a23.893333 23.893333 0 0 1-23.779555 23.950223h-47.729778z m92.672-209.066667h146.659555c13.482667 0 24.462222-11.946667 24.462223-26.851556 0-14.791111-10.922667-26.908444-24.462223-26.908444H455.736889c-13.482667 0-24.462222 12.117333-24.462222 26.908444 0 14.904889 10.922667 26.851556 24.462222 26.851556z"  horiz-adv-x="1024" />

    
    <glyph glyph-name="icon-download" unicode="&#58978;" d="M864.711111 26.510222H147.000889a28.558222 28.558222 0 0 1 0-57.173333h717.653333a28.558222 28.558222 0 1 1 0 57.173333z m-359.196444 83.512889a28.842667 28.842667 0 0 1 20.764444 8.760889l375.239111 345.372444a29.354667 29.354667 0 1 1-41.301333 41.415112l-325.404445-295.480889v542.72a29.297778 29.297778 0 1 1-58.538666 0.113777v-542.833777L163.84 505.628444a29.297778 29.297778 0 0 1-41.358222-41.415111l362.268444-345.486222a29.297778 29.297778 0 0 1 20.821334-8.704z"  horiz-adv-x="1024" />

    
    <glyph glyph-name="icon-dustbin" unicode="&#58979;" d="M140.970667 653.596444A27.136 27.136 0 0 0 113.777778 680.561778c0 14.336 11.776 26.965333 27.192889 26.965333l742.058666-1.820444c14.506667 0 27.192889-11.662222 27.192889-26.965334a27.136 27.136 0 0 0-27.192889-26.965333L140.970667 653.653333z m88.689777-59.335111c15.36 0 27.136-11.662222 27.136-26.965333v-578.958222l531.000889 6.257778V559.217778c0 14.392889 11.776 26.965333 27.192889 26.965333 15.36 0 27.192889-11.662222 27.192889-26.965333v-617.585778L204.231111-66.55999999999995V567.296c-1.820444 14.392889 9.955556 26.965333 25.372445 26.965333z m444.302223-507.221333a27.420444 27.420444 0 0 0-27.477334 27.306667V462.336a27.420444 27.420444 0 0 0 54.954667 0v-348.103111c0-14.506667-11.946667-27.249778-27.477333-27.249778z m-300.373334 0a27.420444 27.420444 0 0 0-27.420444 27.306667V462.336c0 14.506667 11.946667 27.192889 27.477333 27.192889 15.587556 0 27.477333-11.776 27.477334-27.192889v-348.103111c0-14.506667-11.946667-27.249778-27.477334-27.249778z m150.869334 0a27.420444 27.420444 0 0 0-27.477334 27.306667V462.336a27.420444 27.420444 0 0 0 54.954667 0v-348.103111c0-14.506667-11.946667-27.249778-27.477333-27.249778z m112.810666 605.866667V752.924444a32.711111 32.711111 0 0 1-32.995555 32.711112H446.577778a32.711111 32.711111 0 0 1-32.995556-32.711112v-52.622222h-54.044444v52.622222c0 47.217778 38.456889 86.243556 87.04 86.243556h157.809778c48.526222 0 87.04-39.025778 87.04-87.153778v-59.904h-54.044445V692.906667z"  horiz-adv-x="1024" />

    
    <glyph glyph-name="icon-attention" unicode="&#58980;" d="M512 243.996444a70.087111 70.087111 0 1 1 0-140.174222 70.087111 70.087111 0 0 1 0 140.174222zM512 839.111111a455.111111 455.111111 0 0 1-455.111111-455.111111 455.111111 455.111111 0 0 1 455.111111-455.111111 455.111111 455.111111 0 0 1 455.111111 455.111111 455.111111 455.111111 0 0 1-455.111111 455.111111z m0-840.248889A385.137778 385.137778 0 1 0 512 769.137778a385.137778 385.137778 0 0 0 0-770.275556zM512 664.064c-38.684444 0-70.087111-31.402667-70.087111-70.087111v-210.090667a70.087111 70.087111 0 0 1 140.174222 0V594.0906669999999c0 38.684444-31.402667 69.973333-70.087111 69.973333z"  horiz-adv-x="1024" />

    
    <glyph glyph-name="icon-relation" unicode="&#58981;" d="M958.464 106.609778L829.44 234.95111099999997c-11.548444 11.491556-33.393778 12.913778-39.651556-2.048-1.706667-3.982222-2.104889-15.303111-2.104888-15.303111v-86.698667H351.118222a105.244444 105.244444 0 0 0-105.415111 104.846223 105.244444 105.244444 0 0 0 105.415111 104.846222h396.060445c108.032 0 195.925333 87.381333 195.925333 194.844444 0 107.463111-87.893333 194.844444-195.925333 194.844445H359.537778A154.851556 154.851556 0 0 1 211.626667 839.111111C126.293333 839.111111 56.888889 770.048 56.888889 685.226667A154.453333 154.453333 0 0 1 211.626667 531.342222a154.851556 154.851556 0 0 1 147.911111 108.885334h387.640889a105.244444 105.244444 0 0 0 105.358222-104.846223 105.244444 105.244444 0 0 0-105.358222-104.846222H351.118222c-108.088889 0-195.925333-87.381333-195.925333-194.844444 0-107.406222 87.836444-194.844444 195.925333-194.844445h436.622222v-82.261333s0-12.629333 2.104889-17.635556c6.257778-14.961778 28.103111-15.587556 39.594667-4.096l129.024 128.227556a29.240889 29.240889 0 0 1 0 41.528889zM211.626667 621.397333a64.113778 64.113778 0 0 0-64.170667 63.829334c0 35.214222 28.728889 63.772444 64.170667 63.772444 35.384889 0 64.170667-28.615111 64.170666-63.829333 0-35.214222-28.785778-63.829333-64.170666-63.829334z"  horiz-adv-x="1024" />

    
    <glyph glyph-name="icon-menu1" unicode="&#58982;" d="M213.333333 640h597.333334v-68.266667H213.333333V640z m0-227.541333h597.333334v-68.266667H213.333333v68.266667z m0-227.584h597.333334v-68.266667H213.333333v68.266667z"  horiz-adv-x="1024" />

    
    <glyph glyph-name="icon-setting" unicode="&#58983;" d="M945.720889 461.368889l-81.464889 33.678222-0.910222 0.455111a359.765333 359.765333 0 0 1-24.120889 57.799111l0.910222 1.820445 33.223111 80.099555a35.043556 35.043556 0 0 1-7.736889 38.229334l-63.715555 63.715555a35.043556 35.043556 0 0 1-38.229334 7.736889L682.666667 711.6800000000001l-0.910223-0.455111a377.912889 377.912889 0 0 1-57.799111 24.120889c0 0.455111-0.455111 0.910222-0.455111 1.365333l-33.678222 80.554667A35.100444 35.100444 0 0 1 557.511111 839.111111H467.399111a35.100444 35.100444 0 0 1-32.312889-21.845333l-33.678222-81.464889-0.455111-0.910222a359.765333 359.765333 0 0 1-57.799111-24.120889L341.333333 711.6800000000001l-81.009777 33.678222a35.043556 35.043556 0 0 1-38.229334-7.736889l-63.715555-63.715555a35.043556 35.043556 0 0 1-7.736889-38.229334l33.678222-81.464888c0-0.455111 0.455111-0.910222 0.455111-0.910223a382.976 382.976 0 0 1-24.120889-58.254222l-1.365333-0.455111-80.554667-33.223111A35.100444 35.100444 0 0 1 56.888889 429.056v-90.112c0-14.108444 8.647111-26.851556 21.845333-32.312889l81.464889-33.678222 0.910222-0.455111c6.371556-19.569778 14.563556-39.139556 24.120889-57.799111-0.455111-0.455111-0.455111-1.365333-0.910222-1.820445l-33.223111-80.554666a35.043556 35.043556 0 0 1 7.736889-38.229334l63.715555-63.715555c10.012444-10.012444 25.031111-13.198222 38.229334-7.736889l81.009777 33.678222 0.910223 0.455111c18.659556-9.557333 38.229333-17.749333 58.254222-24.120889l0.455111-1.365333 33.678222-80.554667c5.461333-13.198222 18.204444-21.845333 32.312889-21.845333H557.511111a35.100444 35.100444 0 0 1 32.312889 21.845333l33.678222 81.464889 0.455111 0.910222a359.765333 359.765333 0 0 1 57.799111 24.120889l1.820445-0.910222 80.099555-33.223111c13.198222-5.461333 28.216889-2.275556 38.229334 7.736889l63.715555 63.715555a35.043556 35.043556 0 0 1 7.736889 38.229334l-33.678222 81.009777c0 0.455111-0.455111 0.910222-0.455111 0.910223 9.557333 18.659556 17.749333 38.229333 24.120889 58.254222 0.455111 0 0.910222 0.455111 1.365333 0.455111l80.554667 33.678222A35.100444 35.100444 0 0 1 967.111111 339.39911099999995V429.511111a34.531556 34.531556 0 0 1-21.390222 31.857778zM512 213.33333300000004a170.666667 170.666667 0 1 0 0.113778 341.447111A170.666667 170.666667 0 0 0 512 213.33333300000004z"  horiz-adv-x="1024" />

    
    <glyph glyph-name="icon-qjsz" unicode="&#58984;" d="M515.285333 83.24266699999998L938.666667 374.91200000000003v-147.754667l-422.954667-290.346666v-0.597334l-0.426667 0.298667v0.042667l-422.997333 297.984V382.29333299999996l422.997333-299.050666zM925.866667 492.074667l-420.693334-300.501334h-2.517333L85.333333 492.117333 502.613333 810.666667l423.253334-318.592z"  horiz-adv-x="1024" />

    
    <glyph glyph-name="icon-yhgl" unicode="&#58985;" d="M770.176 75.60533299999997c1.706667-13.397333 2.56-26.922667 2.56-40.618666 0-13.696-1.024-26.581333-3.072-38.613334-2.048-12.032-5.12-21.034667-9.216-27.050666-2.730667-4.010667-10.709333-8.021333-24.021333-12.032-13.226667-4.010667-29.781333-7.68-49.536-11.050667a1693.312 1693.312 0 0 0-137.472-17.066667c-24.192-1.962667-47.530667-3.669333-70.016-4.992-22.485333-1.322667-42.24-2.005333-59.306667-2.005333-17.024 0-36.608 0.682667-58.752 2.005333a2925.056 2925.056 0 0 0-68.992 5.034667 4249.088 4249.088 0 0 0-70.528 6.485333 1218.688 1218.688 0 0 0-63.872 8.021334c-19.413333 2.986667-35.754667 6.016-49.066667 9.045333-13.269333 2.986667-21.632 5.845333-25.045333 8.533333-5.418667 4.693333-9.856 18.688-13.269333 42.112-3.413333 23.381333-2.389333 53.461333 3.072 90.24 3.413333 21.333333 12.074667 37.418667 26.026666 48.085334 13.994667 10.709333 30.506667 19.413333 49.578667 26.069333a663.04 663.04 0 0 0 58.794667 17.578667c20.053333 4.992 37.973333 12.544 53.632 22.528 12.288 8.021333 21.674667 15.36 28.16 22.058666 6.442667 6.698667 11.221333 13.397333 14.293333 20.053334a49.92 49.92 0 0 1 4.565333 21.077333 348.16 348.16 0 0 1-1.024 25.045333c-1.322667 13.397333-6.101333 23.893333-14.293333 31.573334-8.192 7.68-17.066667 15.232-26.581333 22.613333a53.802667 53.802667 0 0 0-12.8 17.024 207.488 207.488 0 0 0-9.685334 22.058667c-2.730667 8.021333-5.418667 17.066667-8.149333 27.050666a52.053333 52.053333 0 0 0-12.288 6.016 56.490667 56.490667 0 0 0-10.709333 12.032 96.64 96.64 0 0 0-10.752 22.058667 62.549333 62.549333 0 0 0-4.096 26.581333c0.682667 8.362667 2.389333 15.232 5.12 20.565334 2.730667 6.656 6.485333 12.672 11.264 18.048a421.376 421.376 0 0 0 3.029333 65.152c2.730667 18.730667 6.997333 38.272 12.8 58.666666 5.802667 20.394667 14.805333 39.253333 27.093333 56.661334a158.293333 158.293333 0 0 0 36.778667 39.082666 186.112 186.112 0 0 0 84.821333 35.072c14.336 2.048 27.946667 3.029333 40.917334 3.029334 34.730667 0 65.706667-6.997333 93.013333-21.034667 27.221333-14.08 47.36-29.098667 60.288-45.141333 14.976-18.048 26.026667-38.272 33.194667-60.672 7.168-22.357333 12.458667-43.264 15.872-62.634667 3.413333-22.741333 4.736-45.482667 4.053333-68.181333 3.413333-2.688 6.485333-6.4 9.216-11.050667 2.048-4.010667 3.925333-9.173333 5.632-15.530667 1.706667-6.357333 1.877333-14.208 0.512-23.552-1.365333-12.032-4.096-21.76-8.192-29.098666a74.922667 74.922667 0 0 0-12.245333-17.066667 33.109333 33.109333 0 0 0-16.384-8.96c-2.688-10.069333-5.418667-19.072-8.149334-27.093333a159.573333 159.573333 0 0 0-10.24-22.058667c-4.096-7.381333-8.533333-12.714667-13.269333-16.042667-5.461333-4.693333-10.410667-8.704-14.848-12.032-4.394667-3.370667-8.32-6.826667-11.733333-10.538666-3.413333-3.669333-6.314667-7.850667-8.704-12.544-2.389333-4.693333-4.266667-10.368-5.589334-17.066667a137.6 137.6 0 0 1-1.536-26.538667c0.341333-9.002667 2.56-17.877333 6.613334-26.581333 4.096-8.661333 10.752-17.066667 19.968-25.045333 9.173333-8.021333 21.973333-15.061333 38.314666-21.077334 14.293333-5.973333 30.122667-11.178667 47.530667-15.530666 17.365333-4.352 34.048-9.514667 50.048-15.530667 16.042667-6.016 30.336-13.696 42.965333-23.04 12.586667-9.386667 21.632-21.418667 27.050667-36.138667 2.730667-9.344 4.949333-20.693333 6.656-34.048z m81.834667 15.573334c2.986667 20.608 2.133333 47.104-2.688 79.488-2.986667 18.816-10.666667 32.938667-22.954667 42.368-12.288 9.386667-26.88 17.066667-43.648 22.954666a583.765333 583.765333 0 0 1-51.754667 15.445334 157.866667 157.866667 0 0 0-47.232 19.84 147.029333 147.029333 0 0 0-24.746666 19.456 64.426667 64.426667 0 0 0-12.586667 17.621333 43.946667 43.946667 0 0 0-4.053333 18.56c0 6.485333 0.298667 13.824 0.896 22.058667 1.194667 11.776 5.418667 21.034667 12.586666 27.818666 7.210667 6.784 15.018667 13.397333 23.424 19.84 4.181333 3.541333 7.936 8.533333 11.221334 15.018667 3.328 6.485333 6.144 12.970667 8.533333 19.413333 2.432 7.082667 4.821333 15.018667 7.253333 23.850667 3.584 1.194667 7.168 2.944 10.752 5.290667 2.986667 2.346667 6.186667 5.888 9.472 10.581333 3.285333 4.693333 6.442667 11.221333 9.429334 19.456s4.224 16.042667 3.626666 23.381333a48.64 48.64 0 0 1-4.522666 18.090667 54.741333 54.741333 0 0 1-9.898667 15.914667 371.029333 371.029333 0 0 1-2.688 57.344 400.725333 400.725333 0 0 1-11.264 51.626666c-5.12 17.962667-13.013333 34.602667-23.850667 49.92a139.392 139.392 0 0 1-32.384 34.432 165.12 165.12 0 0 1-74.666666 30.890667 263.637333 263.637333 0 0 1-32.981334 2.602667c10.197333 8.746667 22.826667 17.109333 37.845334 25.173333 23.296 12.373333 49.536 18.56 78.677333 18.56 11.648 0 23.594667-0.853333 35.84-2.645333 12.245333-1.792 24.32-5.162667 36.266667-10.197334s23.765333-11.946667 35.413333-20.821333c11.648-8.874667 22.144-20.352 31.445333-34.56 10.496-14.762667 18.346667-31.274667 23.594667-49.578667 5.248-18.346667 9.045333-35.456 11.392-51.413333 2.304-19.456 3.2-38.656 2.602667-57.6 4.096-4.096 7.296-9.386667 9.642666-15.914667a58.922667 58.922667 0 0 0 0.853334-42.538666c-2.901333-8.234667-5.973333-14.762667-9.173334-19.456-3.2-4.736-6.272-8.277333-9.173333-10.666667a43.946667 43.946667 0 0 0-10.496-5.290667c-2.346667-8.874667-4.693333-16.853333-6.997333-23.893333-2.304-6.528-5.12-13.013333-8.277334-19.541333a33.962667 33.962667 0 0 0-11.818666-14.165334 398.506667 398.506667 0 0 1-22.272-20.821333c-6.741333-6.784-10.666667-16.085333-11.818667-27.904-0.597333-7.68-0.853333-14.762667-0.853333-21.248 0-6.485333 1.152-12.842667 3.456-19.072 2.346667-6.186667 6.272-12.245333 11.818666-18.133333 5.546667-5.930667 13.568-12.373333 24.021334-19.498667 13.44-8.277333 28.714667-14.762667 45.909333-19.498667 17.194667-4.693333 33.962667-9.898667 50.261333-15.488 16.298667-5.632 30.464-13.312 42.410667-23.04 11.946667-9.728 19.370667-23.765333 22.272-42.069333 4.693333-33.066667 5.674667-59.946667 3.072-80.64-2.645333-20.650667-6.570667-33.066667-11.818667-37.205333-3.498667-2.944-11.946667-5.888-25.344-8.832-13.397333-2.986667-29.866667-5.930667-49.408-8.874667-8.874667-1.365333-18.133333-2.645333-27.818666-3.84 1.152 4.949333 2.218667 10.752 3.2 17.493333z"  horiz-adv-x="1024" />

    


  </font>
</defs>
</svg>
